<svg width="34" height="19" viewBox="0 0 34 19" fill="none" xmlns="http://www.w3.org/2000/svg">
<path d="M17 14.1546L29.5191 1.635C29.9455 1.20889 30.4669 0.994166 31.0833 0.990832C31.6997 0.987498 32.2302 1.19902 32.675 1.62541C33.12 2.07041 33.3425 2.605 33.3425 3.22916C33.3425 3.85333 33.12 4.38777 32.675 4.8325L19.5862 17.9354C19.2195 18.3021 18.8126 18.5711 18.3654 18.7425C17.9181 18.9142 17.463 19 17 19C16.5369 19 16.0818 18.9142 15.6345 18.7425C15.1873 18.5711 14.7804 18.3021 14.4137 17.9354L1.28329 4.805C0.838288 4.36 0.621483 3.83167 0.632872 3.22C0.643983 2.60833 0.86676 2.08 1.3012 1.635C1.7462 1.20889 2.27607 0.991112 2.89079 0.981666C3.50579 0.9725 4.03579 1.19028 4.48079 1.635L17 14.1546Z" fill="#6BB6A8"/>
</svg>
