
<svg width="22" height="21" viewBox="0 0 22 21" fill="none" xmlns="http://www.w3.org/2000/svg">
<path fill-rule="evenodd" clip-rule="evenodd" d="M11.1389 19.5C16.1095 19.5 20.1389 15.4706 20.1389 10.5C20.1389 5.52944 16.1095 1.5 11.1389 1.5C6.16835 1.5 2.13892 5.52944 2.13892 10.5C2.13892 15.4706 6.16835 19.5 11.1389 19.5Z" stroke="#ffffff" stroke-width="2" stroke-linecap="round" stroke-linejoin="round"/>
<path d="M11.3258 5.57031V6.6258M11.3258 6.6258C12.5129 6.56202 13.6091 7.17097 14.0259 8.12578M11.3258 6.6258C9.94749 6.51371 8.71704 7.36574 8.55518 8.54434C8.55517 9.30064 9.17797 9.9518 10.0432 10.1001L12.6085 10.5399C13.4737 10.6882 14.0965 11.3394 14.0965 12.0957C13.9346 13.2743 12.7042 14.1263 11.3258 14.0142M11.3258 15.0697V14.0142M11.3258 14.0142C10.1388 14.078 9.0426 13.4691 8.62572 12.5142" stroke="#ffffff" stroke-width="1.58323" stroke-linecap="round" stroke-linejoin="round"/>
</svg>
