<svg width="223" height="25" viewBox="0 0 223 25" fill="none" xmlns="http://www.w3.org/2000/svg">
<path d="M0.187061 23V6.2H5.94706C7.27506 6.2 8.37106 6.424 9.23506 6.872C10.0991 7.304 10.7391 7.896 11.1551 8.648C11.5711 9.4 11.7791 10.248 11.7791 11.192C11.7791 12.104 11.5711 12.936 11.1551 13.688C10.7551 14.44 10.1231 15.048 9.25906 15.512C8.39506 15.96 7.29106 16.184 5.94706 16.184H2.58706V23H0.187061ZM2.58706 14.192H5.85106C7.08306 14.192 7.97106 13.92 8.51506 13.376C9.05906 12.832 9.33106 12.104 9.33106 11.192C9.33106 10.232 9.05906 9.496 8.51506 8.984C7.97106 8.456 7.08306 8.192 5.85106 8.192H2.58706V14.192ZM13.5039 23V11.096H15.6639L15.8559 13.376C16.1279 12.848 16.4719 12.392 16.8879 12.008C17.3039 11.624 17.7919 11.328 18.3519 11.12C18.9279 10.912 19.5759 10.808 20.2959 10.808V13.328H19.6239C19.1119 13.328 18.6239 13.392 18.1599 13.52C17.7119 13.648 17.3119 13.856 16.9599 14.144C16.6239 14.432 16.3599 14.832 16.1679 15.344C15.9919 15.84 15.9039 16.464 15.9039 17.216V23H13.5039ZM26.9283 23.288C25.7603 23.288 24.7283 23.032 23.8323 22.52C22.9363 21.992 22.2323 21.264 21.7203 20.336C21.2083 19.408 20.9523 18.32 20.9523 17.072C20.9523 15.824 21.2003 14.736 21.6963 13.808C22.2083 12.864 22.9123 12.128 23.8083 11.6C24.7203 11.072 25.7763 10.808 26.9763 10.808C28.1443 10.808 29.1523 11.072 30.0003 11.6C30.8643 12.112 31.5283 12.792 31.9923 13.64C32.4563 14.488 32.6883 15.432 32.6883 16.472C32.6883 16.632 32.6883 16.808 32.6883 17C32.6883 17.192 32.6803 17.392 32.6643 17.6H22.7283V15.92H30.2883C30.2403 14.96 29.9043 14.2 29.2803 13.64C28.6563 13.08 27.8723 12.8 26.9283 12.8C26.2883 12.8 25.6883 12.944 25.1283 13.232C24.5843 13.52 24.1443 13.944 23.8083 14.504C23.4723 15.048 23.3043 15.744 23.3043 16.592V17.264C23.3043 18.144 23.4723 18.88 23.8083 19.472C24.1443 20.064 24.5843 20.52 25.1283 20.84C25.6883 21.144 26.2883 21.296 26.9283 21.296C27.6803 21.296 28.3123 21.12 28.8243 20.768C29.3363 20.416 29.7123 19.952 29.9523 19.376H32.3523C32.1443 20.128 31.7923 20.8 31.2963 21.392C30.8003 21.968 30.1843 22.432 29.4483 22.784C28.7123 23.12 27.8723 23.288 26.9283 23.288ZM39.2907 23.288C38.3147 23.288 37.4347 23.12 36.6507 22.784C35.8827 22.448 35.2667 21.984 34.8027 21.392C34.3387 20.784 34.0587 20.072 33.9627 19.256H36.3867C36.4827 19.64 36.6507 19.992 36.8907 20.312C37.1307 20.616 37.4507 20.864 37.8507 21.056C38.2667 21.248 38.7467 21.344 39.2907 21.344C39.8187 21.344 40.2507 21.272 40.5867 21.128C40.9227 20.968 41.1707 20.76 41.3307 20.504C41.4907 20.248 41.5707 19.976 41.5707 19.688C41.5707 19.256 41.4587 18.928 41.2347 18.704C41.0107 18.48 40.6827 18.304 40.2507 18.176C39.8347 18.048 39.3307 17.92 38.7387 17.792C38.2587 17.68 37.7627 17.544 37.2507 17.384C36.7387 17.224 36.2747 17.024 35.8587 16.784C35.4427 16.528 35.1067 16.216 34.8507 15.848C34.5947 15.464 34.4667 14.992 34.4667 14.432C34.4667 13.744 34.6427 13.128 34.9947 12.584C35.3627 12.024 35.8827 11.592 36.5547 11.288C37.2267 10.968 38.0267 10.808 38.9547 10.808C40.2667 10.808 41.3307 11.128 42.1467 11.768C42.9787 12.392 43.4587 13.296 43.5867 14.48H41.2827C41.2027 13.936 40.9627 13.512 40.5627 13.208C40.1627 12.904 39.6187 12.752 38.9307 12.752C38.2587 12.752 37.7387 12.888 37.3707 13.16C37.0187 13.432 36.8427 13.792 36.8427 14.24C36.8427 14.512 36.9467 14.76 37.1547 14.984C37.3787 15.192 37.6907 15.368 38.0907 15.512C38.5067 15.656 38.9947 15.792 39.5547 15.92C40.3387 16.08 41.0587 16.28 41.7147 16.52C42.3867 16.76 42.9307 17.104 43.3467 17.552C43.7787 18 43.9947 18.656 43.9947 19.52C44.0107 20.256 43.8267 20.912 43.4427 21.488C43.0587 22.048 42.5147 22.488 41.8107 22.808C41.1067 23.128 40.2667 23.288 39.2907 23.288ZM50.1097 23.288C49.1017 23.288 48.2697 23.128 47.6137 22.808C46.9577 22.472 46.4697 22.024 46.1497 21.464C45.8297 20.904 45.6697 20.296 45.6697 19.64C45.6697 18.856 45.8697 18.184 46.2697 17.624C46.6857 17.064 47.2777 16.632 48.0457 16.328C48.8297 16.024 49.7657 15.872 50.8537 15.872H53.9977C53.9977 15.184 53.8857 14.616 53.6617 14.168C53.4537 13.72 53.1417 13.384 52.7257 13.16C52.3097 12.92 51.8057 12.8 51.2137 12.8C50.4777 12.8 49.8377 12.984 49.2937 13.352C48.7657 13.704 48.4457 14.224 48.3337 14.912H45.9337C46.0297 14.032 46.3257 13.296 46.8217 12.704C47.3177 12.096 47.9497 11.632 48.7177 11.312C49.5017 10.976 50.3337 10.808 51.2137 10.808C52.3337 10.808 53.2777 11.008 54.0457 11.408C54.8137 11.808 55.3977 12.376 55.7977 13.112C56.1977 13.832 56.3977 14.688 56.3977 15.68V23H54.3097L54.1177 20.96C53.9577 21.28 53.7497 21.584 53.4937 21.872C53.2537 22.16 52.9657 22.408 52.6297 22.616C52.3097 22.824 51.9337 22.984 51.5017 23.096C51.0857 23.224 50.6217 23.288 50.1097 23.288ZM50.5657 21.344C51.0937 21.344 51.5657 21.24 51.9817 21.032C52.3977 20.824 52.7497 20.544 53.0377 20.192C53.3257 19.824 53.5417 19.424 53.6857 18.992C53.8457 18.544 53.9337 18.08 53.9497 17.6V17.576H51.0937C50.3897 17.576 49.8217 17.656 49.3897 17.816C48.9737 17.976 48.6697 18.2 48.4777 18.488C48.2857 18.776 48.1897 19.112 48.1897 19.496C48.1897 19.864 48.2777 20.192 48.4537 20.48C48.6457 20.752 48.9177 20.968 49.2697 21.128C49.6217 21.272 50.0537 21.344 50.5657 21.344ZM58.6942 23V5.72H61.0942V23H58.6942ZM69.1186 23.288C67.9506 23.288 66.9186 23.032 66.0226 22.52C65.1266 21.992 64.4226 21.264 63.9106 20.336C63.3986 19.408 63.1426 18.32 63.1426 17.072C63.1426 15.824 63.3906 14.736 63.8866 13.808C64.3986 12.864 65.1026 12.128 65.9986 11.6C66.9106 11.072 67.9666 10.808 69.1666 10.808C70.3346 10.808 71.3426 11.072 72.1906 11.6C73.0546 12.112 73.7186 12.792 74.1826 13.64C74.6466 14.488 74.8786 15.432 74.8786 16.472C74.8786 16.632 74.8786 16.808 74.8786 17C74.8786 17.192 74.8706 17.392 74.8546 17.6H64.9186V15.92H72.4786C72.4306 14.96 72.0946 14.2 71.4706 13.64C70.8466 13.08 70.0626 12.8 69.1186 12.8C68.4786 12.8 67.8786 12.944 67.3186 13.232C66.7746 13.52 66.3346 13.944 65.9986 14.504C65.6626 15.048 65.4946 15.744 65.4946 16.592V17.264C65.4946 18.144 65.6626 18.88 65.9986 19.472C66.3346 20.064 66.7746 20.52 67.3186 20.84C67.8786 21.144 68.4786 21.296 69.1186 21.296C69.8706 21.296 70.5026 21.12 71.0146 20.768C71.5266 20.416 71.9026 19.952 72.1426 19.376H74.5426C74.3346 20.128 73.9826 20.8 73.4866 21.392C72.9906 21.968 72.3746 22.432 71.6386 22.784C70.9026 23.12 70.0626 23.288 69.1186 23.288ZM82.3662 23V11.096H84.7662V23H82.3662ZM83.5662 8.744C83.1022 8.744 82.7182 8.6 82.4142 8.312C82.1262 8.024 81.9822 7.656 81.9822 7.208C81.9822 6.776 82.1262 6.424 82.4142 6.152C82.7182 5.864 83.1022 5.72 83.5662 5.72C84.0142 5.72 84.3902 5.864 84.6942 6.152C84.9982 6.424 85.1502 6.776 85.1502 7.208C85.1502 7.656 84.9982 8.024 84.6942 8.312C84.3902 8.6 84.0142 8.744 83.5662 8.744ZM92.1348 23.288C91.1588 23.288 90.2788 23.12 89.4948 22.784C88.7268 22.448 88.1108 21.984 87.6468 21.392C87.1828 20.784 86.9028 20.072 86.8068 19.256H89.2308C89.3268 19.64 89.4948 19.992 89.7348 20.312C89.9748 20.616 90.2948 20.864 90.6948 21.056C91.1108 21.248 91.5908 21.344 92.1348 21.344C92.6628 21.344 93.0948 21.272 93.4308 21.128C93.7668 20.968 94.0148 20.76 94.1748 20.504C94.3348 20.248 94.4148 19.976 94.4148 19.688C94.4148 19.256 94.3028 18.928 94.0788 18.704C93.8548 18.48 93.5268 18.304 93.0948 18.176C92.6788 18.048 92.1748 17.92 91.5828 17.792C91.1028 17.68 90.6068 17.544 90.0948 17.384C89.5828 17.224 89.1188 17.024 88.7028 16.784C88.2868 16.528 87.9508 16.216 87.6948 15.848C87.4388 15.464 87.3108 14.992 87.3108 14.432C87.3108 13.744 87.4868 13.128 87.8388 12.584C88.2068 12.024 88.7268 11.592 89.3988 11.288C90.0708 10.968 90.8708 10.808 91.7988 10.808C93.1108 10.808 94.1748 11.128 94.9908 11.768C95.8228 12.392 96.3028 13.296 96.4308 14.48H94.1268C94.0468 13.936 93.8068 13.512 93.4068 13.208C93.0068 12.904 92.4628 12.752 91.7748 12.752C91.1028 12.752 90.5828 12.888 90.2148 13.16C89.8628 13.432 89.6868 13.792 89.6868 14.24C89.6868 14.512 89.7908 14.76 89.9988 14.984C90.2228 15.192 90.5348 15.368 90.9348 15.512C91.3508 15.656 91.8388 15.792 92.3988 15.92C93.1828 16.08 93.9028 16.28 94.5588 16.52C95.2308 16.76 95.7748 17.104 96.1908 17.552C96.6228 18 96.8388 18.656 96.8388 19.52C96.8548 20.256 96.6708 20.912 96.2868 21.488C95.9028 22.048 95.3588 22.488 94.6548 22.808C93.9508 23.128 93.1108 23.288 92.1348 23.288ZM104.343 23V11.096H106.479L106.647 13.184C107.031 12.448 107.575 11.872 108.279 11.456C108.983 11.024 109.799 10.808 110.727 10.808C111.687 10.808 112.511 11.008 113.199 11.408C113.887 11.792 114.415 12.376 114.783 13.16C115.167 13.944 115.359 14.936 115.359 16.136V23H112.983V16.376C112.983 15.224 112.735 14.352 112.239 13.76C111.759 13.152 111.039 12.848 110.079 12.848C109.439 12.848 108.863 13.008 108.351 13.328C107.855 13.632 107.463 14.08 107.175 14.672C106.887 15.264 106.743 15.984 106.743 16.832V23H104.343ZM123.158 23.288C122.038 23.288 121.022 23.032 120.11 22.52C119.214 21.992 118.502 21.264 117.974 20.336C117.446 19.392 117.182 18.296 117.182 17.048C117.182 15.8 117.446 14.712 117.974 13.784C118.518 12.84 119.246 12.112 120.158 11.6C121.07 11.072 122.086 10.808 123.206 10.808C124.342 10.808 125.358 11.072 126.254 11.6C127.166 12.112 127.886 12.832 128.414 13.76C128.942 14.688 129.206 15.784 129.206 17.048C129.206 18.296 128.934 19.392 128.39 20.336C127.862 21.264 127.142 21.992 126.23 22.52C125.318 23.032 124.294 23.288 123.158 23.288ZM123.182 21.224C123.806 21.224 124.39 21.072 124.934 20.768C125.478 20.448 125.918 19.976 126.254 19.352C126.59 18.728 126.758 17.96 126.758 17.048C126.758 16.12 126.59 15.352 126.254 14.744C125.934 14.12 125.502 13.656 124.958 13.352C124.414 13.032 123.83 12.872 123.206 12.872C122.598 12.872 122.014 13.032 121.454 13.352C120.91 13.656 120.47 14.12 120.134 14.744C119.814 15.352 119.654 16.12 119.654 17.048C119.654 17.96 119.814 18.728 120.134 19.352C120.47 19.976 120.902 20.448 121.43 20.768C121.974 21.072 122.558 21.224 123.182 21.224ZM133.216 23L129.712 11.096H132.112L134.752 21.272L134.152 21.248L137.104 11.096H139.792L142.768 21.248L142.168 21.272L144.808 11.096H147.208L143.728 23H141.256L138.136 12.416H138.784L135.688 23H133.216ZM154.057 23V5.72H156.457V23H154.057ZM159.153 23V11.096H161.553V23H159.153ZM160.353 8.744C159.889 8.744 159.505 8.6 159.201 8.312C158.913 8.024 158.769 7.656 158.769 7.208C158.769 6.776 158.913 6.424 159.201 6.152C159.505 5.864 159.889 5.72 160.353 5.72C160.801 5.72 161.177 5.864 161.481 6.152C161.785 6.424 161.937 6.776 161.937 7.208C161.937 7.656 161.785 8.024 161.481 8.312C161.177 8.6 160.801 8.744 160.353 8.744ZM167.578 23L163.114 11.096H165.634L169.018 20.696L172.402 11.096H174.874L170.41 23H167.578ZM181.229 23.288C180.061 23.288 179.029 23.032 178.133 22.52C177.237 21.992 176.533 21.264 176.021 20.336C175.509 19.408 175.253 18.32 175.253 17.072C175.253 15.824 175.501 14.736 175.997 13.808C176.509 12.864 177.213 12.128 178.109 11.6C179.021 11.072 180.077 10.808 181.277 10.808C182.445 10.808 183.453 11.072 184.301 11.6C185.165 12.112 185.829 12.792 186.293 13.64C186.757 14.488 186.989 15.432 186.989 16.472C186.989 16.632 186.989 16.808 186.989 17C186.989 17.192 186.981 17.392 186.965 17.6H177.029V15.92H184.589C184.541 14.96 184.205 14.2 183.581 13.64C182.957 13.08 182.173 12.8 181.229 12.8C180.589 12.8 179.989 12.944 179.429 13.232C178.885 13.52 178.445 13.944 178.109 14.504C177.773 15.048 177.605 15.744 177.605 16.592V17.264C177.605 18.144 177.773 18.88 178.109 19.472C178.445 20.064 178.885 20.52 179.429 20.84C179.989 21.144 180.589 21.296 181.229 21.296C181.981 21.296 182.613 21.12 183.125 20.768C183.637 20.416 184.013 19.952 184.253 19.376H186.653C186.445 20.128 186.093 20.8 185.597 21.392C185.101 21.968 184.485 22.432 183.749 22.784C183.013 23.12 182.173 23.288 181.229 23.288ZM189.415 18.104L189.151 6.2H191.719L191.455 18.104H189.415ZM190.447 23.12C189.983 23.12 189.599 22.976 189.295 22.688C189.007 22.384 188.863 22.024 188.863 21.608C188.863 21.176 189.007 20.816 189.295 20.528C189.599 20.224 189.983 20.072 190.447 20.072C190.911 20.072 191.287 20.224 191.575 20.528C191.863 20.816 192.007 21.176 192.007 21.608C192.007 22.024 191.863 22.384 191.575 22.688C191.287 22.976 190.911 23.12 190.447 23.12ZM198.261 24.68H222.261V0.68H198.261V24.68Z" fill="white"/>
</svg>
	