
<svg width="17" height="17" viewBox="0 0 17 17" fill="none" xmlns="http://www.w3.org/2000/svg">
<path d="M1.53613 15.3257L4.54822 12.3136M11.0027 1.55615L7.9906 4.56824M15.3057 5.85913L12.2936 8.87122M6.51468 3.27734L13.5845 10.3471L11.8168 12.1148C11.356 12.5941 10.8042 12.9766 10.1938 13.2401C9.5833 13.5035 8.92644 13.6426 8.2616 13.6491C7.59676 13.6556 6.9373 13.5295 6.3218 13.278C5.7063 13.0266 5.14712 12.655 4.67699 12.1848C4.20685 11.7147 3.8352 11.1555 3.58378 10.54C3.33236 9.92452 3.20622 9.26505 3.21274 8.60021C3.21926 7.93537 3.35831 7.27851 3.62176 6.66806C3.8852 6.05761 4.26775 5.50583 4.74702 5.04501L6.51468 3.27734Z" stroke="#ffffff" stroke-width="1.72" stroke-linecap="round" stroke-linejoin="round"/>
</svg>
