<svg width="18" height="21" viewBox="0 0 18 21" fill="none" xmlns="http://www.w3.org/2000/svg">
<path d="M12.2448 8.78291L8.09678 12.9309L5.60778 10.4419M16.0258 4.36191C13.5668 4.16791 11.3288 3.18891 9.56278 1.67391C9.20078 1.36391 8.64978 1.36391 8.28878 1.67391C6.52278 3.18791 4.28478 4.16791 1.82578 4.36191C1.31378 4.40191 0.925781 4.83991 0.925781 5.35291V9.68291C0.925781 14.0499 4.08178 18.1449 8.40378 19.3679C8.74278 19.4639 9.10978 19.4639 9.44878 19.3679C13.7698 18.1439 16.9258 14.0509 16.9258 9.68391V5.35391C16.9258 4.83991 16.5378 4.40191 16.0258 4.36191Z" stroke="#ffffff" stroke-width="1.5" stroke-linecap="round" stroke-linejoin="round"/>
</svg>