<svg width="32" height="33" viewBox="0 0 32 33" fill="none" xmlns="http://www.w3.org/2000/svg">
<path d="M31.7855 17.8907C31.4881 16.6126 30.9737 15.433 30.0985 14.4455C29.7937 14.1008 29.4305 13.8102 29.0843 13.5024C28.977 13.4088 28.9283 13.3177 28.9405 13.1674C29.0039 12.3671 28.9795 11.5692 28.8405 10.7763C28.5626 9.17801 28.036 7.66846 27.1852 6.28941C26.9853 5.96681 26.9951 5.73287 27.1535 5.40039C27.6752 4.3218 28.0458 3.19391 28.0263 1.96755C28.019 1.4504 27.7215 1.20663 27.2242 1.33466C25.993 1.64741 24.8765 2.20395 23.833 2.92793C23.4771 3.17419 23.6161 3.17665 23.2967 2.92793C21.3976 1.44297 19.2206 0.704243 16.8485 0.529363C15.8782 0.457949 14.9055 0.519514 13.94 0.684504C12.0092 1.01449 10.2564 1.75326 8.70099 2.95995C8.52546 3.09539 8.42063 3.09293 8.24267 2.96241C7.17976 2.1916 6.01443 1.6326 4.73939 1.31739C4.37127 1.22627 4.09825 1.3691 4.02024 1.74096C3.96904 1.99214 3.96417 2.26302 3.99098 2.52161C4.09825 3.59774 4.44443 4.60743 4.91497 5.57027C5.02224 5.78945 5.01005 5.94459 4.89059 6.14652C3.59851 8.32835 2.89883 10.6678 3.05242 13.2363C3.05729 13.3175 2.99147 13.4234 2.92808 13.485C2.55508 13.8494 2.13092 14.1671 1.8042 14.5685C0.653479 15.9845 0.102521 17.6394 0.00990399 19.4568C-0.0461673 20.5305 0.139111 21.5697 0.482855 22.5867C0.955806 23.9855 1.63844 25.266 2.61604 26.3742C2.78182 26.5613 2.99879 26.7337 3.27915 26.6401C3.43274 26.5884 3.57657 26.4924 3.71309 26.4012C3.91787 26.2683 4.11535 26.1254 4.31769 25.9826C4.37133 26.0319 4.41277 26.0713 4.45178 26.1131C5.14902 26.8519 5.89015 27.5488 6.73855 28.1029C7.48698 28.5929 8.27684 29.0189 9.0521 29.4622C9.17156 29.5287 9.18375 29.5878 9.17156 29.7158C9.14231 30.0532 9.08867 30.4004 9.14231 30.728C9.25933 31.4323 9.68108 31.9617 10.2662 32.341C10.7245 32.6389 11.2682 32.4592 11.4388 32.0011C11.4559 31.9543 11.49 31.9125 11.5363 31.8361C11.6972 32.2203 11.9045 32.4986 12.3238 32.4888C12.726 32.4789 12.9406 32.2105 13.1015 31.8337C13.1356 31.9149 13.1502 31.947 13.1648 31.979C13.3428 32.4272 13.6646 32.5528 14.101 32.3607C14.474 32.1957 14.7202 31.9026 14.8665 31.5382C14.9884 31.2353 15.0469 30.9077 15.1347 30.5802H16.8949C16.8997 30.632 16.907 30.6664 16.907 30.7034C16.9022 31.2772 17.1386 31.7475 17.5311 32.144C18.0309 32.6464 18.6526 32.5232 18.8525 31.9396C18.8598 31.915 18.8818 31.8953 18.911 31.851C19.0597 32.2154 19.2548 32.506 19.679 32.4961C20.0837 32.4863 20.3031 32.2277 20.4542 31.8534C20.503 31.9445 20.5322 31.9987 20.5639 32.0578C20.7736 32.4641 21.1612 32.6144 21.5635 32.4075C22.2826 32.0381 22.7434 31.4496 22.8507 30.6369C22.897 30.2798 22.8385 29.908 22.8263 29.509C24.6572 28.7013 26.2857 27.5414 27.6387 25.9678C27.8825 26.1377 28.0971 26.2953 28.3214 26.4431C28.809 26.7681 29.0308 26.7386 29.4257 26.3052C30.2887 25.3595 30.8885 24.2563 31.3443 23.062C31.7149 22.0917 31.9465 21.0919 31.9928 20.0527C32.027 19.3213 31.9368 18.5998 31.771 17.8905L31.7855 17.8907ZM5.28546 7.61415C5.56094 7.11178 5.83886 6.60938 6.12413 6.11444C6.22652 5.9396 6.23627 5.79676 6.13632 5.60961C5.67068 4.76743 5.31962 3.87594 5.10511 2.93523C5.08073 2.82441 5.07098 2.71113 5.05392 2.59785C5.07342 2.57569 5.09292 2.55352 5.11243 2.5289C5.41473 2.65449 5.7219 2.7727 6.01931 2.90814C6.83358 3.27753 7.57227 3.76513 8.26951 4.32413C8.43041 4.45218 8.62789 4.44972 8.79854 4.30689C9.35926 3.82669 9.93216 3.36617 10.5709 2.99189C12.0336 2.1349 13.6158 1.70394 15.2931 1.59563C17.2288 1.47004 19.0791 1.80003 20.832 2.65209C21.5829 3.01655 22.2631 3.48936 22.8896 4.04344C23.0091 4.14933 23.1261 4.25522 23.2504 4.35373C23.3942 4.46701 23.5942 4.44484 23.7648 4.31432C24.6668 3.61739 25.6201 3.00916 26.6952 2.6176C26.7659 2.59298 26.8414 2.5782 26.9828 2.54373C26.9097 2.87371 26.8634 3.15691 26.7829 3.43023C26.5538 4.22317 26.2417 4.97918 25.837 5.6983C25.7883 5.78695 25.8053 5.95687 25.859 6.05538C26.1857 6.67841 26.5318 7.29157 26.8707 7.9097C26.9122 7.98358 26.9463 8.05992 27.0121 8.19044C25.269 6.16621 23.1456 5.5136 20.6856 6.28933C18.2526 7.05517 16.8459 8.82332 16.3388 11.3253H15.6587C15.4393 10.0153 14.8931 8.87262 13.9741 7.92452C12.9916 6.91238 11.819 6.26966 10.4196 6.06282C9.01297 5.8535 7.69892 6.10961 6.48729 6.85331C5.9607 7.17591 5.50726 7.58964 5.14647 8.10186C5.1099 8.15357 5.06358 8.20036 4.98069 8.22991C5.08065 8.02552 5.17085 7.81373 5.28056 7.61427L5.28546 7.61415ZM17.0336 13.5711C16.8069 14.2238 16.429 14.7877 16.0072 15.359C15.5635 14.7827 15.2101 14.1941 14.9736 13.5416C14.7712 12.985 15.0589 12.5147 15.6708 12.4236C15.9195 12.3866 16.1901 12.4014 16.4364 12.4581C16.98 12.5812 17.2189 13.0343 17.0312 13.5711L17.0336 13.5711ZM3.85439 24.9087C3.65692 25.0958 3.43751 25.2584 3.20345 25.4529C3.02305 25.1919 2.86945 24.9678 2.73293 24.7708C3.0718 24.49 3.42288 24.2684 3.67882 23.9631C3.95431 23.6356 4.16396 23.2465 4.35654 22.8598C4.50525 22.5594 4.36873 22.2614 4.08837 22.1309C3.82507 22.0078 3.58372 22.1039 3.42039 22.4289C3.21317 22.8426 2.98888 23.2391 2.59638 23.5001C2.45986 23.5913 2.30871 23.6627 2.12831 23.7661C1.97472 23.4189 1.82357 23.0914 1.68949 22.7589C1.67242 22.7195 1.72606 22.6185 1.77482 22.5914C2.26727 22.3033 2.78411 22.0373 3.09373 21.5276C3.2912 21.2025 3.45454 20.8504 3.59106 20.4933C3.69833 20.2175 3.54474 19.9294 3.29364 19.8235C3.04741 19.7201 2.81093 19.8235 2.6598 20.1165C2.45258 20.5155 2.26242 20.9268 1.90164 21.2198C1.37018 21.6483 1.24096 21.6015 1.13855 20.9415C0.828937 18.9419 1.30676 17.1343 2.46233 15.4992C2.67931 15.1938 2.9426 14.9254 3.18642 14.6373C3.20592 14.6447 3.22786 14.652 3.24737 14.657C3.37901 15.3194 3.61305 15.9425 3.96165 16.5162C4.14937 16.8265 4.37122 17.1146 4.56869 17.4175C5.29278 18.5331 5.69014 19.7545 5.59746 21.0892C5.49507 22.5693 4.94652 23.8695 3.85921 24.9038L3.85439 24.9087ZM13.9986 30.9765C13.8889 31.2351 13.6353 31.3877 13.3793 31.3508C13.2331 31.3286 13.1526 31.2769 13.1892 31.0922C13.2257 30.8977 13.2404 30.6884 13.2111 30.4938C13.1794 30.2796 13.0063 30.1564 12.7967 30.1392C12.5968 30.1244 12.4212 30.2155 12.3457 30.4125C12.2628 30.6268 12.1872 30.8484 12.1458 31.075C12.1043 31.3015 11.9727 31.2794 11.8166 31.2572C11.6216 31.2301 11.624 31.1095 11.6582 30.9543C11.685 30.8361 11.6972 30.7105 11.7021 30.5874C11.7118 30.3338 11.6119 30.1885 11.3973 30.1269C11.1682 30.0629 10.9487 30.1343 10.8415 30.3411C10.7513 30.5135 10.6952 30.7031 10.6269 30.8854C10.5977 30.9642 10.5733 31.0479 10.5367 31.1563C9.87363 30.516 10.0467 29.5802 10.8537 29.2502C11.4778 28.9941 12.1043 29.0852 12.7138 29.2798C13.0429 29.3857 13.3647 29.5556 13.65 29.7551C14.0595 30.0432 14.1765 30.548 13.9961 30.9741L13.9986 30.9765ZM21.5071 31.1784C21.3974 30.8952 21.3097 30.6268 21.1902 30.3732C21.0537 30.0875 20.7295 30.0161 20.4759 30.1909C20.2858 30.3215 20.2809 30.516 20.3053 30.7155C20.3248 30.8731 20.3589 31.0282 20.3882 31.1932C20.3126 31.2228 20.2565 31.2474 20.1956 31.2671C20.0103 31.3262 19.903 31.2819 19.8713 31.0627C19.8421 30.8632 19.7738 30.6687 19.7104 30.4791C19.6349 30.255 19.4349 30.1195 19.235 30.1392C18.9986 30.1614 18.7938 30.3412 18.7792 30.5825C18.7694 30.7598 18.8011 30.9445 18.8352 31.1193C18.8645 31.2646 18.8011 31.3213 18.6816 31.3508C18.3306 31.4419 17.9674 31.1218 17.9357 30.6933C17.9088 30.3165 18.0332 29.9914 18.3355 29.7772C19.1839 29.1764 20.1127 28.9326 21.1318 29.2502C21.4926 29.3611 21.7266 29.6319 21.8339 29.9915C21.968 30.4446 21.8192 30.8288 21.5072 31.1809L21.5071 31.1784ZM26.0392 26.1252C24.9543 27.1743 23.6842 27.9401 22.3238 28.5632C22.2653 28.5903 22.1654 28.5952 22.1142 28.5632C21.178 27.9475 20.1785 27.95 19.1424 28.2233C18.394 28.4228 17.7236 28.7454 17.2457 29.3931C17.2018 29.4522 17.1018 29.499 17.0238 29.5014C16.4582 29.5138 15.8902 29.5162 15.3246 29.5187C15.2588 29.5187 15.1954 29.5138 15.1296 29.5138C14.9492 29.5113 14.8078 29.4522 14.6907 29.2921C14.2446 28.6863 13.5961 28.4081 12.9037 28.2209C12.0773 27.9993 11.246 27.9377 10.4293 28.2849C10.2976 28.3416 10.1563 28.3933 10.0441 28.4819C9.88077 28.6149 9.74424 28.5977 9.5614 28.514C7.87682 27.7308 6.40918 26.6473 5.12197 25.3052C5.10246 25.2855 5.08784 25.2609 5.06346 25.2264C5.21704 25.0048 5.37307 24.7881 5.52178 24.5664C6.31651 23.3819 6.6725 22.057 6.64567 20.6435C6.61397 19.0699 6.11908 17.6318 5.15368 16.3808C4.56371 15.6124 4.24437 14.7382 4.11755 13.7852C4.06879 13.4207 4.02247 13.0538 4.00053 12.682C4.15412 13.5488 4.46129 14.3565 4.91471 15.1052C5.58026 16.201 6.49694 17.0285 7.6232 17.6022C9.28587 18.4469 11.0216 18.6488 12.8208 18.0997C12.9232 18.0676 13.0256 18.0282 13.1207 17.9815C13.3742 17.8534 13.4693 17.5924 13.3718 17.319C13.284 17.0801 13.0183 16.9545 12.7501 17.0186C12.382 17.1097 12.0163 17.2279 11.6409 17.2771C9.93676 17.5012 8.42038 17.0309 7.08686 15.9572C6.03125 15.1075 5.3267 14.0093 5.05122 12.6746C4.71723 11.0542 5.09023 9.62589 6.26042 8.40691C7.7451 6.85796 10.322 6.67079 12.0797 7.7888C13.1767 8.48573 13.9715 9.42147 14.403 10.6528C14.5127 10.9656 14.5591 11.3004 14.62 11.628C14.6322 11.6871 14.5883 11.7881 14.5371 11.825C13.8716 12.3101 13.6887 13.2238 14.0252 14.0537C14.3835 14.9304 14.8565 15.7332 15.5074 16.4227C15.7731 16.7034 16.1461 16.7502 16.4094 16.4719C17.2286 15.6076 17.8819 14.6324 18.1062 13.4356C18.2233 12.8027 17.9892 12.2412 17.4651 11.8423C17.3091 11.7241 17.3554 11.5837 17.3773 11.4508C17.4773 10.8499 17.6748 10.2785 17.9868 9.75895C18.9157 8.21984 20.2419 7.25202 22.0386 7.08458C23.5867 6.93928 24.9202 7.44903 25.949 8.66555C27.2508 10.2022 27.3752 11.9161 26.5999 13.7065C25.7564 15.6544 24.2425 16.797 22.1898 17.223C21.2268 17.4225 20.2785 17.3634 19.3423 17.0556C18.9205 16.9177 18.6743 17.0457 18.589 17.4127C18.5256 17.6885 18.6646 17.9569 18.9864 18.0431C19.491 18.1785 20.0054 18.3214 20.5247 18.3632C22.2995 18.5085 23.9255 18.0579 25.3639 16.9817C26.656 16.0164 27.4995 14.7383 27.8823 13.1573C27.9189 13.0071 27.953 12.8544 27.9895 12.7017C27.8823 14.0414 27.6726 15.3392 26.8096 16.4424C26.01 17.4644 25.5614 18.6366 25.4054 19.9344C25.1811 21.806 25.6736 23.4731 26.7438 24.9901C26.7925 25.0615 26.8413 25.1353 26.912 25.2412C26.617 25.5343 26.3245 25.8323 26.0246 26.1204L26.0392 26.1252ZM30.837 21.2296C30.7809 21.5005 30.6688 21.5473 30.4225 21.4192C30.0861 21.2444 29.8375 20.9735 29.6497 20.6484C29.54 20.4612 29.4449 20.2642 29.3377 20.0746C29.2036 19.8382 29.0207 19.7545 28.7818 19.8086C28.5819 19.853 28.4088 20.0746 28.404 20.311C28.4015 20.3947 28.4186 20.4859 28.4478 20.5671C28.7331 21.4044 29.2085 22.0767 30.0276 22.4658C30.3908 22.6381 30.3884 22.6529 30.2397 23.0198C30.1641 23.1996 30.0763 23.3769 29.9934 23.5542C29.9666 23.6109 29.9276 23.665 29.891 23.7241C29.323 23.5493 28.9671 23.1479 28.7014 22.6456C28.6551 22.5544 28.6112 22.4633 28.56 22.3771C28.4186 22.1407 28.1821 22.0471 27.9578 22.1333C27.7043 22.2294 27.5702 22.4633 27.6287 22.7441C27.7189 23.1849 27.9529 23.5617 28.2455 23.8818C28.5454 24.2068 28.9037 24.4777 29.2718 24.8052C29.1597 24.9751 29.0134 25.1943 28.8623 25.4233C28.3552 25.1746 27.9822 24.8028 27.6628 24.3842C26.7901 23.2366 26.3463 21.9363 26.4292 20.481C26.4926 19.3777 26.8144 18.3484 27.4555 17.4446C28.0577 16.5974 28.5843 15.7208 28.772 14.6299C29.2108 15.0116 29.5375 15.4253 29.8179 15.871C30.3347 16.6886 30.6833 17.5776 30.8613 18.5356C31.0295 19.4394 31.0295 20.3407 30.8443 21.2395L30.837 21.2296Z" fill="#1F3434"/>
<path d="M19.9426 13.7631C20.2425 13.736 20.4058 13.5316 20.4034 13.1869V12.8815H20.3863C20.3985 12.7017 20.3887 12.5146 20.4302 12.3397C20.574 11.7167 20.9958 11.3498 21.5882 11.2045C22.1855 11.0592 22.7145 11.234 23.1533 11.6674C23.5312 12.0418 23.6336 12.5121 23.5995 13.0293C23.5775 13.3667 23.7677 13.5858 24.0554 13.6055C24.3479 13.6252 24.5941 13.4208 24.6112 13.0933C24.6258 12.7904 24.6331 12.4752 24.5722 12.1822C24.2845 10.7908 22.9851 9.93382 21.5833 10.1259C20.162 10.3205 19.0845 11.5887 19.3721 13.3002C19.4233 13.5982 19.6695 13.7878 19.9377 13.7607L19.9426 13.7631Z" fill="#1F3434"/>
<path d="M11.8098 10.7365C11.0077 10.0396 10.0643 9.92632 9.07696 10.276C7.86533 10.7045 7.22169 11.9432 7.41922 13.1548C7.46554 13.4355 7.69226 13.6227 7.94336 13.6005C8.2286 13.5759 8.42119 13.3567 8.41875 13.0538C8.41875 12.9652 8.41388 12.879 8.41388 12.7928C8.41144 11.6083 9.61821 10.8153 10.7007 11.2857C11.2151 11.5098 11.6978 12.0343 11.6222 12.9677C11.6222 13.0268 11.6173 13.1524 11.6222 13.2755C11.6393 13.6794 12.0293 13.9059 12.356 13.6769C12.4852 13.5858 12.612 13.4159 12.6364 13.2632C12.7924 12.2831 12.5705 11.3965 11.8098 10.7365Z" fill="#1F3434"/>
<path d="M17.9066 20.629C18.282 20.9171 18.7087 21.0501 19.1767 21.0353C19.2426 21.0353 19.3059 21.0378 19.3718 21.0353C19.9471 21.0033 20.4664 20.8334 20.832 20.3532C21.0319 20.0921 20.9856 19.7548 20.7565 19.5701C20.5273 19.3854 20.3128 19.4174 20.0568 19.6809C19.8837 19.8607 19.6765 19.9542 19.4278 19.9789C19.0524 20.0158 18.7281 19.9271 18.4234 19.6883C18.0577 19.4001 17.6774 19.5898 17.6262 20.0552C17.597 20.3162 17.7189 20.4886 17.9041 20.629L17.9066 20.629Z" fill="#1F3434"/>
<path d="M14.1186 19.624C13.8992 19.491 13.7187 19.5797 13.5505 19.7151C13.1507 20.0377 12.7144 20.0747 12.2584 19.8826C12.1049 19.8186 11.9878 19.6708 11.8464 19.5748C11.6855 19.464 11.5124 19.4122 11.3223 19.5231C11.1346 19.6314 11.0517 19.7915 11.0492 20.0057C11.0468 20.3135 11.2443 20.4982 11.4613 20.6558C11.8416 20.9316 12.278 21.0326 12.8094 21.035C13.258 21.0547 13.7286 20.9144 14.1259 20.5795C14.2429 20.481 14.3405 20.3184 14.3746 20.1682C14.4282 19.9417 14.3258 19.7496 14.1162 19.6215L14.1186 19.624Z" fill="#1F3434"/>
<path d="M16.6685 22.5203C16.3248 22.7838 15.7811 22.902 15.3837 22.5301C15.3277 22.4784 15.2496 22.4464 15.1814 22.407C14.9108 22.2469 14.5353 22.4784 14.4987 22.801C14.4646 23.1113 14.6084 23.3206 14.84 23.4807C15.1814 23.7146 15.5666 23.818 15.981 23.823C16.4954 23.823 16.9561 23.6703 17.3413 23.3157C17.4925 23.1753 17.5607 22.9931 17.5169 22.7837C17.434 22.3774 17.0269 22.2469 16.6685 22.5203Z" fill="#1F3434"/>
<path d="M13.9013 25.931C13.5161 25.798 13.1211 25.6946 12.7311 25.5788C12.497 25.5099 12.2654 25.4434 12.1094 25.3991C11.773 25.3941 11.5901 25.5296 11.5316 25.7611C11.4682 26.0073 11.5755 26.2708 11.8095 26.357C12.1192 26.4703 12.4385 26.554 12.7554 26.6451C13.065 26.7338 13.3747 26.8323 13.6916 26.8889C13.9573 26.9357 14.1792 26.7609 14.2401 26.5097C14.2986 26.2684 14.1767 26.0246 13.9037 25.931H13.9013Z" fill="#1F3434"/>
<path d="M19.9813 25.3989C19.9301 25.4014 19.8789 25.394 19.8301 25.4063C19.2621 25.5762 18.6892 25.7388 18.126 25.9284C18.0041 25.9703 17.8822 26.086 17.8115 26.1993C17.6994 26.3741 17.7555 26.5662 17.8676 26.7287C17.9871 26.9011 18.1675 26.9307 18.3503 26.8839C18.9647 26.7164 19.579 26.544 20.1885 26.3544C20.4201 26.283 20.5347 26.0195 20.481 25.788C20.4274 25.5516 20.2324 25.3989 19.9813 25.3989Z" fill="#1F3434"/>
<path d="M21.2855 22.2686C21.1051 22.207 20.8759 22.2932 20.7467 22.4927C20.6687 22.6134 20.6028 22.7439 20.5468 22.8769C20.4639 23.0862 20.537 23.2659 20.6882 23.4088C20.8271 23.5393 20.9978 23.5491 21.1709 23.4753C21.4025 23.3792 21.6146 23.0468 21.617 22.7783C21.6194 22.5395 21.4878 22.34 21.283 22.2686L21.2855 22.2686Z" fill="#1F3434"/>
<path d="M11.259 22.4861C11.1371 22.3063 10.9152 22.2226 10.7348 22.2792C10.5203 22.3457 10.396 22.5107 10.3789 22.8629C10.4399 22.9762 10.5227 23.1904 10.6617 23.3652C10.8129 23.5573 11.0932 23.5696 11.2858 23.4416C11.4882 23.3061 11.5515 23.082 11.4418 22.8309C11.3906 22.7127 11.3297 22.5969 11.259 22.4886L11.259 22.4861Z" fill="#1F3434"/>
<path d="M13.1529 23.8718C13.5088 23.8742 13.7307 23.5541 13.599 23.2167C13.5503 23.0887 13.4845 22.968 13.4113 22.8522C13.2626 22.6183 12.9871 22.569 12.7579 22.7242C12.558 22.8621 12.4947 23.0862 12.58 23.362C12.6751 23.6674 12.9042 23.8693 13.1504 23.8717L13.1529 23.8718Z" fill="#1F3434"/>
<path d="M19.1283 22.6559C18.9381 22.5895 18.726 22.6633 18.5919 22.8776C18.5017 23.0229 18.4237 23.1854 18.3847 23.3504C18.3189 23.6287 18.531 23.8749 18.8138 23.8774C19.1234 23.8799 19.4549 23.5277 19.4672 23.1854C19.4769 22.9514 19.3331 22.7249 19.1283 22.6559Z" fill="#1F3434"/>
<path d="M15.9934 25.4479C15.6911 25.4553 15.4741 25.7139 15.4839 26.0586C15.4912 26.3394 15.7399 26.5856 15.9959 26.5709C16.2957 26.5561 16.5541 26.2877 16.5444 26.0045C16.5322 25.6917 16.2811 25.4405 15.9934 25.4479Z" fill="#1F3434"/>
<path d="M15.9784 20.9174C16.266 20.9247 16.5342 20.6612 16.5391 20.3707C16.544 20.0481 16.305 19.7969 15.9905 19.7993C15.7053 19.7993 15.4737 20.0407 15.4786 20.3313C15.4835 20.6859 15.6785 20.9124 15.9808 20.9198L15.9784 20.9174Z" fill="#1F3434"/>
<path d="M15.084 7.23034C14.9865 7.41995 15.0157 7.68592 15.1401 7.79919C15.3132 7.9568 15.4936 7.91001 15.6496 7.78688C15.9007 7.58741 16.1299 7.60711 16.3712 7.79919C16.515 7.91493 16.6759 7.92725 16.8246 7.80412C16.9758 7.68099 17.0075 7.51846 16.9465 7.33376C16.8198 6.95945 16.4248 6.68115 15.9518 6.68115C15.613 6.70332 15.2765 6.85107 15.0815 7.23277L15.084 7.23034Z" fill="#1F3434"/>
<path d="M15.2155 4.16171L15.2253 4.15925C15.4057 4.12724 15.5276 3.96963 15.5373 3.7874C15.5495 3.31705 15.0327 2.82702 14.5573 2.68908C13.9088 2.55364 13.8528 3.20622 14.2111 3.60761C14.4403 3.89081 14.8572 4.21833 15.2131 4.15923L15.2155 4.16171Z" fill="#1F3434"/>
<path d="M16.7584 4.16972L16.7681 4.17218C17.2314 4.25837 17.8482 3.6772 17.9969 3.2512C18.0944 2.98524 17.9384 2.69465 17.6531 2.68234C17.4069 2.66018 17.1144 2.81039 16.8827 3.02464C16.539 3.32015 16.2245 3.98255 16.7584 4.16972Z" fill="#1F3434"/>
<path d="M11.3857 4.6739C11.7733 4.63942 12.2974 4.14444 12.3388 3.69624C12.3608 3.48445 12.2048 3.31207 11.9902 3.317H11.978C11.6562 3.31453 11.2784 3.60266 11.115 3.89324C10.9078 4.19614 10.942 4.70094 11.3857 4.6739Z" fill="#1F3434"/>
<path d="M20.6424 4.67414H20.6522C20.857 4.68646 21.0081 4.52885 21.013 4.32938C21.0374 3.87626 20.4084 3.17444 19.8769 3.34434C19.6015 3.47732 19.6844 3.82947 19.8233 4.05849C19.9842 4.33922 20.3328 4.65444 20.6424 4.67414Z" fill="#1F3434"/>
<path d="M17.7902 5.17888C17.7853 4.92524 17.5366 4.79226 17.3099 4.85628C16.9369 4.94247 16.5566 5.44238 16.7053 5.85115C16.8053 6.1245 17.1246 6.12696 17.344 5.97182C17.5902 5.8216 17.8072 5.46945 17.7901 5.18871V5.1764L17.7902 5.17888Z" fill="#1F3434"/>
<path d="M15.2889 5.38292C15.1719 5.02831 14.6355 4.68353 14.3576 4.93227C14.009 5.30658 14.5624 6.08229 14.9988 6.06999H15.0085C15.3401 6.05275 15.4035 5.639 15.2889 5.38292Z" fill="#1F3434"/>
</svg>
