<svg width="30" height="31" viewBox="0 0 30 31" fill="none" xmlns="http://www.w3.org/2000/svg">
<mask id="mask0_114_1814" style="mask-type:alpha" maskUnits="userSpaceOnUse" x="0" y="0" width="30" height="31">
<rect y="0.204834" width="30" height="30" fill="#D9D9D9"/>
</mask>
<g mask="url(#mask0_114_1814)">
<path d="M8.5578 22.0798V24.8923C8.5578 25.1579 8.46791 25.3805 8.28811 25.5601C8.10832 25.7399 7.88551 25.8298 7.61968 25.8298C7.35405 25.8298 7.13145 25.7399 6.95186 25.5601C6.77249 25.3805 6.6828 25.1579 6.6828 24.8923V13.2023L3.74999 15.4091C3.53041 15.5614 3.29801 15.6259 3.0528 15.6026C2.80759 15.5792 2.60488 15.4579 2.44468 15.2385C2.28447 15.0189 2.21915 14.7865 2.24874 14.5413C2.27853 14.2961 2.40311 14.0934 2.62249 13.9332L13.625 5.60382C13.8302 5.45319 14.0498 5.34226 14.2837 5.27101C14.5179 5.19955 14.7567 5.16382 15 5.16382C15.2433 5.16382 15.4821 5.19955 15.7162 5.27101C15.9502 5.34226 16.1698 5.45319 16.375 5.60382L27.3894 13.9332C27.596 14.0934 27.7174 14.2961 27.7534 14.5413C27.7895 14.7865 27.7274 15.0189 27.5672 15.2385C27.407 15.4579 27.2043 15.5792 26.9591 15.6026C26.7138 15.6259 26.4814 15.5614 26.2619 15.4091L23.3294 13.2023V24.8923C23.3294 25.1579 23.2395 25.3805 23.0597 25.5601C22.8799 25.7399 22.6571 25.8298 22.3912 25.8298C22.1256 25.8298 21.903 25.7399 21.7234 25.5601C21.5441 25.3805 21.4544 25.1579 21.4544 24.8923V22.0798H8.5578ZM8.5578 15.3491H21.4544V12.3682H8.5578V15.3491ZM8.5578 20.2048H21.4544V17.2238H8.5578V20.2048ZM10.2644 10.4932H19.7356L15 6.94257L10.2644 10.4932Z" fill="#879090"/>
</g>
</svg>
