<svg width="30" height="31" viewBox="0 0 30 31" fill="none" xmlns="http://www.w3.org/2000/svg">
<mask id="mask0_114_1819" style="mask-type:alpha" maskUnits="userSpaceOnUse" x="0" y="0" width="30" height="31">
<rect y="0.204834" width="30" height="30" fill="#D9D9D9"/>
</mask>
<g mask="url(#mask0_114_1819)">
<path d="M15 17.0246C14.8156 17.0246 14.6365 17.0005 14.4628 16.9524C14.2888 16.9042 14.1161 16.8361 13.9446 16.748L3.74277 11.3227C3.53756 11.2056 3.39016 11.0613 3.30058 10.8899C3.21079 10.7184 3.16589 10.5302 3.16589 10.3252C3.16589 10.12 3.21079 9.93163 3.30058 9.76018C3.39016 9.58872 3.53756 9.44445 3.74277 9.32736L13.9446 3.90205C14.1161 3.81393 14.2888 3.7458 14.4628 3.69768C14.6365 3.64955 14.8156 3.62549 15 3.62549C15.1843 3.62549 15.3634 3.64955 15.5371 3.69768C15.7111 3.7458 15.8838 3.81393 16.0553 3.90205L26.269 9.32736C26.4742 9.44445 26.6217 9.58872 26.7115 9.76018C26.8013 9.93163 26.8462 10.12 26.8462 10.3252C26.8462 10.5302 26.8013 10.7184 26.7115 10.8899C26.6217 11.0613 26.4742 11.2056 26.269 11.3227L16.0553 16.748C15.8838 16.8361 15.7111 16.9042 15.5371 16.9524C15.3634 17.0005 15.1843 17.0246 15 17.0246ZM15 15.1858L24.2162 10.3252L15 5.46455L5.79558 10.3252L15 15.1858ZM15 20.0655L25.0046 14.7699C25.0544 14.7409 25.2243 14.7129 25.5143 14.6858C25.7643 14.7016 25.969 14.7954 26.1284 14.9671C26.288 15.1385 26.3678 15.3492 26.3678 15.5992C26.3678 15.7722 26.3296 15.9283 26.2534 16.0677C26.1774 16.2073 26.0528 16.3235 25.8796 16.4164L16.0553 21.628C15.8838 21.7161 15.7111 21.7842 15.5371 21.8324C15.3634 21.8803 15.1843 21.9042 15 21.9042C14.8156 21.9042 14.6365 21.8803 14.4628 21.8324C14.2888 21.7842 14.1161 21.7161 13.9446 21.628L4.13214 16.4164C3.95902 16.3235 3.83246 16.2073 3.75246 16.0677C3.67225 15.9283 3.63214 15.7722 3.63214 15.5992C3.63214 15.3492 3.71391 15.1385 3.87746 14.9671C4.04079 14.7954 4.24746 14.7016 4.49746 14.6858C4.58558 14.6698 4.67058 14.6693 4.75246 14.6846C4.83412 14.6998 4.91902 14.7282 5.00714 14.7699L15 20.0655ZM15 24.9452L25.0046 19.6496C25.0544 19.6208 25.2243 19.5928 25.5143 19.5655C25.7643 19.5815 25.969 19.6753 26.1284 19.8467C26.288 20.0182 26.3678 20.2289 26.3678 20.4789C26.3678 20.6521 26.3296 20.8083 26.2534 20.9477C26.1774 21.087 26.0528 21.2032 25.8796 21.2961L16.0553 26.5077C15.8838 26.5958 15.7111 26.6639 15.5371 26.7121C15.3634 26.7602 15.1843 26.7842 15 26.7842C14.8156 26.7842 14.6365 26.7602 14.4628 26.7121C14.2888 26.6639 14.1161 26.5958 13.9446 26.5077L4.13214 21.2961C3.95902 21.2032 3.83246 21.087 3.75246 20.9477C3.67225 20.8083 3.63214 20.6521 3.63214 20.4789C3.63214 20.2289 3.71391 20.0182 3.87746 19.8467C4.04079 19.6753 4.24746 19.5815 4.49746 19.5655C4.58558 19.5494 4.67058 19.549 4.75246 19.5642C4.83412 19.5794 4.91902 19.6079 5.00714 19.6496L15 24.9452Z" fill="#879090"/>
</g>
</svg>
