<svg width="15" height="18" viewBox="0 0 15 18" fill="none" xmlns="http://www.w3.org/2000/svg">
<path d="M7.89474 12.6C8.14638 12.6 8.35732 12.5138 8.52755 12.3413C8.69778 12.1687 8.7829 11.955 8.7829 11.7C8.7829 11.445 8.69778 11.2312 8.52755 11.0588C8.35732 10.8863 8.14638 10.8 7.89474 10.8C7.64309 10.8 7.43216 10.8863 7.26193 11.0588C7.09169 11.2312 7.00658 11.445 7.00658 11.7C7.00658 11.955 7.09169 12.1687 7.26193 12.3413C7.43216 12.5138 7.64309 12.6 7.89474 12.6ZM7.00658 9H8.7829V4.5H7.00658V9ZM7.89474 18C5.83717 17.475 4.13857 16.2787 2.79893 14.4113C1.45929 12.5438 0.789474 10.47 0.789474 8.19V2.7L7.89474 0L15 2.7V8.19C15 10.47 14.3302 12.5438 12.9905 14.4113C11.6509 16.2787 9.9523 17.475 7.89474 18ZM7.89474 16.11C9.43421 15.615 10.7072 14.625 11.7138 13.14C12.7204 11.655 13.2237 10.005 13.2237 8.19V3.9375L7.89474 1.9125L2.56579 3.9375V8.19C2.56579 10.005 3.06908 11.655 4.07566 13.14C5.08224 14.625 6.35526 15.615 7.89474 16.11Z" fill="white"/>
</svg>
