<?xml version="1.0" encoding="UTF-8"?>
<svg id="Layer_2" data-name="Layer 2" xmlns="http://www.w3.org/2000/svg" viewBox="0 0 147.58 133.21">
  <defs>
    <style>
      .cls-1 {
        fill: #1a9684;
      }

      .cls-2 {
        fill: #fff;
      }

      .cls-3 {
        fill: #640000;
      }

      .cls-4 {
        fill: #bf3945;
      }

      .cls-5 {
        fill: #e4e1d2;
      }

      .cls-6 {
        fill: #2fb9a8;
      }

      .cls-7 {
        fill: #958965;
      }

      .cls-8 {
        fill: #123534;
      }
    </style>
  </defs>
  <g id="Layer_1-2" data-name="Layer 1">
    <g>
      <path class="cls-6" d="M43.58,127.26c2.76.1,5.61.83,8.32,1.08,3.11-.98,6.23-1.87,9.4-2.34,2.28-.34,4.43-.1,6.36.54,3.47-.17,7.04-.42,10.73-.79,12.09-1.21,22.87-3.31,32.14-5.68-.19,1.46-.38,2.93-.57,4.39.62-.24,1.24-.46,1.85-.7,5.84-2.27,11.42-5.37,17.22-7.76-.25-.42-.49-.81-.71-1.17,2.6-2.41,3.62-5.19,3.9-6,4.03.66,7.82-1.33,9.16-4.57,1.39-3.34-.42-6.54-.66-6.95,0,0,5.7-.59,5.01-7.15-.58-5.55-5.18-11.81-5.18-11.81-.33-4.2-1.25-10.06-3.79-16.6-2.75-7.09-6.39-12.35-9.17-15.75,12.4-13.15,6.61-21.08,6.61-21.08,3.47-8.77-2.02-13.35-2.02-13.35,1.25-3.46,2.14-7.86-.78-9.27-7.84-3.8-18.48,14.92-31.95,20.72,0,0-10.81-3.39-30.89-1.28-20.08,2.11-29.94,7.68-29.94,7.68C24.24,26.55,9.94,10.46,3.06,15.79c-4.44,3.45,4.1,13.25,4.1,13.25-1.48-1.28-2.96-2.56-4.44-3.84.77,4.44,1.53,8.87,2.29,13.31,0,0-4.02,8.97,10.85,19.25-2.01,3.91-4.47,9.8-5.7,17.31-1.12,6.93-.8,12.84-.25,17.03,0,0-3.2,7.08-2.61,12.63.69,6.54,6.39,5.95,6.39,5.95-.56,2.27-.67,4.93.79,6.94.22.29.46.55.73.78-.23-.02-.44-.04-.67-.06-.06.06-.14.12-.21.18,3.87.47,7.24,3.1,9.07,6.53,1.44,1,2.91,1.94,4.46,2.77,5.23-.48,10.46-.74,15.72-.54Z"/>
      <path class="cls-1" d="M124.52,24.51c.43.25,2.54,1.58,3.26,4.33.78,2.97-.68,5.31-.92,5.68.37,0,2,.07,3.3,1.35,1.76,1.72,1.39,4.12,1.34,4.34-1.3,1.93-2.61,3.86-3.91,5.79-.66-1.3-1.7-2.99-3.32-4.66-2.61-2.69-5.43-4.01-7.13-4.64,2.46-4.07,4.91-8.13,7.38-12.19"/>
      <path class="cls-1" d="M14.4,36.09c-.32.3-2.34,2.26-2.26,5.36.1,3.44,2.7,5.37,3,5.58-2.54.25-4.51,2.2-4.75,4.44-.3,2.69,1.94,5.4,5.06,5.59,1.77-2.06,3.57-4.33,5.37-6.82,1.01-1.39,1.94-2.77,2.81-4.11-3.08-3.35-6.16-6.69-9.24-10.03"/>
      <path class="cls-7" d="M131.55,6.84c-3.21-1.49-8.57,5.35-16.67,12.05-2.98,2.47-7.53,5.89-13.72,9.36-3.22-.86-7.83-1.89-13.46-2.43-12.18-1.17-21.64.68-28.64,2.11-5.55,1.13-12.94,3.05-21.37,6.45-1.29-.1-3.41-.37-5.9-1.12-10.61-3.23-13.49-11.16-22.95-12.95-1.48-.28-3.82-.54-6.83-.09-.2-2.02.03-3.62,1.06-4.43,6.88-5.33,21.18,10.76,35.55,13.64,0,0,9.86-5.57,29.94-7.68,20.09-2.11,30.89,1.28,30.89,1.28,13.46-5.8,24.1-24.52,31.95-20.72,2.13,1.03,2.24,3.65,1.66,6.34-.23-.58-.66-1.42-1.5-1.8"/>
      <path class="cls-5" d="M23.77,99.71s-2.64,5.49-.09,7.68c2.02,1.73,6.58,1.02,6.58,1.02-.07,1.02-.09,3.3,1.37,5.32,1.88,2.61,4.8,3.13,6.02,3.34,2.53.43,4.6-.17,5.66-.55.22,1.07.88,3.54,3.03,5.65,3.49,3.41,8.03,3.14,8.78,3.08.26,1.03.52,2.06.79,3.09,7.21-.55,14.43-.95,21.59-1.72,9.75-1.05,19.42-2.59,29.14-3.67,3.79-.75,7.58-1.47,11.37-2.13-.98-1.61-1.65-2.47-1.65-2.47l-.89.1c.03-.14.06-.27.1-.41.16-.03,3.56-.68,4.75-3.87.98-2.63-.3-4.91-.48-5.23,3.08.13,5.74-1.87,6.34-4.55.47-2.09-.37-4.35-2.14-5.82,0,0,4.61-.24,6.23-2.37,2.04-2.67-1.68-7.49-1.68-7.49,1.85-.3,4.03-2.02,4.66-2.93,4.84-6.95-11.88-49.93-39.2-48.13-18.97,1.25-21.17,25.31-21.17,25.31,0,0-7.15-23.07-25.96-20.36-27.1,3.91-34.51,49.43-28.33,55.21.81.76,3.29,2,5.17,1.9Z"/>
      <path class="cls-6" d="M55.12,125.23c.46-.02,1.12-.1,1.84-.4,1.22-.5,1.96-1.32,2.3-1.75.43.34,3.23,2.51,7.08,1.83,3.5-.61,5.36-3.14,5.71-3.64,2.08,2.26,5.14,3.17,7.83,2.33,2.68-.85,3.94-3.09,4.22-3.63.4.37,3.98,3.47,8.74,2.48,3.27-.67,5.17-2.87,5.73-3.56.17.18,3.02,3.11,7.02,2.28,3.35-.68,4.9-3.45,5.11-3.85.18.2,1.32,1.42,3.12,1.39,1.23-.02,2.08-.61,2.39-.85.51,1.68,1.95,1.25,2.46,2.93-1.11.94-4.7,5.12-8.73,5.74-4.78.75-8.45-.95-9.7-1.59-.35.6-2.12,3.51-5.79,4.5-4.57,1.22-8.16-1.58-8.54-1.88-.72.7-2.65,2.4-5.66,2.89-4.29.71-7.49-1.58-8.1-2.03-1.24.79-3.66,2.1-6.98,2.45-4.07.43-7.22-.83-8.57-1.47-.49-1.38-.98-2.76-1.47-4.15"/>
      <path class="cls-1" d="M42.61,122.2c.94.9,3.72,3.3,7.93,3.67,2.11.19,3.86-.2,5-.57.42,1.63.84,3.25,1.25,4.88-1.25.69-3.76,1.86-7.15,1.97-3.04.09-5.4-.71-6.68-1.26-.76.48-5.85,3.61-12.07,1.73-5.15-1.55-7.67-5.51-8.26-6.49-1.09.39-3.41,1.05-6.29.58-3.47-.58-5.7-2.45-6.54-3.23,1.56-1.95,3.12-3.9,4.68-5.85l-.63-3.58c1.23.64,3.35,1.56,6.16,1.78,2.25.17,4.11-.17,5.33-.51.45.88,2.89,5.44,8.39,7.13,4.16,1.28,7.68.2,8.88-.24"/>
      <path class="cls-2" d="M47.69,57.03c16.8-.4,22.2,40.33-5.14,41.7-20.9,1.05-19.66-41.13,5.14-41.7"/>
      <path class="cls-3" d="M47.75,59.83c-2.18.04-4.29.47-6.24,1.28-1.94.82-3.72,2.04-5.26,3.58-1.53,1.54-2.83,3.4-3.86,5.43s-1.8,4.24-2.27,6.54c-.5,2.28-.71,4.66-.58,7.02.12,2.35.58,4.71,1.48,6.9.9,2.18,2.27,4.19,4.17,5.62,1.89,1.45,4.29,2.21,6.74,2.29.3,0,.62-.02.92-.05.3-.03.61-.07.91-.11.62-.1,1.22-.2,1.82-.34,1.19-.28,2.37-.64,3.49-1.12,2.24-.94,4.23-2.37,5.81-4.11,1.59-1.75,2.75-3.83,3.53-6.03.78-2.2,1.17-4.54,1.25-6.87.09-2.33-.14-4.67-.64-6.92-.49-2.25-1.25-4.43-2.27-6.39-1.03-1.95-2.34-3.7-3.9-4.92s-3.29-1.86-5.11-1.8ZM47.62,54.23c1.59-.03,3.22.24,4.71.79s2.84,1.39,4,2.36c2.33,1.95,3.93,4.41,5.07,6.94,2.25,5.1,2.79,10.62,2.02,15.91-.41,2.64-1.18,5.23-2.36,7.62-1.18,2.4-2.8,4.57-4.78,6.32-.99.88-2.07,1.64-3.22,2.27-1.14.63-2.34,1.12-3.57,1.52-1.23.39-2.48.65-3.75.82-.63.08-1.26.13-1.89.17-.64.03-1.26.03-1.9.05-1.27.08-2.56-.02-3.83-.31-1.26-.29-2.49-.78-3.61-1.47-2.27-1.37-4.06-3.44-5.33-5.75s-2.1-4.86-2.54-7.46c-.45-2.61-.54-5.27-.3-7.92.27-2.65.87-5.3,1.86-7.83,1-2.53,2.41-4.96,4.27-7.08s4.2-3.9,6.83-5.1c1.32-.59,2.69-1.05,4.1-1.36s2.82-.45,4.23-.5"/>
      <path class="cls-2" d="M96.31,51.92c-16.51,3.11-13.33,44.07,13.7,39.73,20.67-3.32,10.68-44.31-13.7-39.73"/>
      <path class="cls-3" d="M95.79,49.16c1.39-.25,2.81-.4,4.24-.39,1.43,0,2.88.17,4.28.48,2.82.62,5.49,1.87,7.75,3.56,2.27,1.68,4.15,3.76,5.66,6.03,1.5,2.28,2.63,4.74,3.44,7.28.79,2.54,1.26,5.17,1.36,7.81.1,2.64-.17,5.3-.94,7.83-.76,2.52-2.09,4.91-4.02,6.73-.95.91-2.05,1.65-3.22,2.2-1.18.55-2.42.91-3.68,1.1-.63.1-1.25.25-1.87.35-.62.1-1.25.17-1.89.23-1.26.1-2.55.1-3.83-.03s-2.56-.37-3.81-.75c-1.25-.37-2.47-.9-3.62-1.54-2.31-1.3-4.35-3.09-6-5.19-1.66-2.09-2.95-4.47-3.9-6.97-1.85-5.01-2.47-10.53-1.32-15.97.59-2.72,1.65-5.45,3.51-7.85.93-1.19,2.07-2.28,3.42-3.14,1.34-.85,2.88-1.46,4.44-1.75ZM96.83,54.67c-1.79.32-3.35,1.31-4.62,2.82s-2.19,3.5-2.79,5.63c-.6,2.13-.89,4.42-.9,6.72-.02,2.31.25,4.64.83,6.9.56,2.26,1.42,4.45,2.64,6.46,1.21,1.99,2.79,3.78,4.71,5.17,1.92,1.38,4.16,2.35,6.54,2.81,1.19.24,2.41.35,3.63.37.62,0,1.23,0,1.85-.05.31-.02.62-.04.92-.07.31-.03.62-.07.91-.15,2.39-.58,4.57-1.84,6.13-3.64,1.57-1.79,2.48-4.05,2.91-6.37.44-2.32.38-4.72.02-7.06-.37-2.34-1.07-4.61-2.03-6.74-.94-2.14-2.15-4.15-3.59-5.92-1.42-1.78-3.08-3.32-4.91-4.51-1.82-1.19-3.82-2.01-5.89-2.41s-4.23-.37-6.37.04"/>
      <path class="cls-8" d="M50.74,58.8c-9.82-2.27-19.91,11.52-18.07,23.34.98,6.29,6.07,14.17,13.38,14.45,7.7.3,13.02-8.04,14.62-13.86,2.77-10-2.74-22.26-9.93-23.93"/>
      <path class="cls-2" d="M56.61,69.37c.2,1.9-1.18,3.6-3.08,3.8s-3.6-1.19-3.8-3.08c-.2-1.89,1.18-3.59,3.08-3.79s3.6,1.18,3.8,3.08"/>
      <path class="cls-8" d="M93.69,54.29c9.13-4.27,21.87,7.13,22.53,19.07.35,6.36-3,15.13-10.08,16.91-7.48,1.89-14.4-5.17-17.18-10.51-4.79-9.21-1.95-22.34,4.73-25.47"/>
      <path class="cls-2" d="M90.15,65.84c.2,1.9,1.9,3.28,3.8,3.08s3.28-1.9,3.08-3.8-1.9-3.28-3.8-3.08-3.28,1.9-3.08,3.8"/>
      <path class="cls-3" d="M41.05,107.13c-.16,0-.31-.03-.45-.12l-3.42-2c-.43-.25-.57-.8-.32-1.22.25-.43.8-.58,1.23-.32l3.42,2c.43.25.57.8.31,1.23-.17.28-.46.44-.77.44"/>
      <path class="cls-3" d="M45.66,106.08c-.16,0-.31-.04-.45-.12l-3.42-2c-.43-.25-.57-.8-.32-1.23.25-.43.8-.57,1.23-.32l3.42,2c.43.25.57.79.31,1.22-.17.29-.46.44-.77.44"/>
      <path class="cls-3" d="M111.53,99.72c-.15,0-.3-.03-.45-.12l-3.42-2c-.42-.25-.57-.8-.31-1.23.24-.42.79-.57,1.22-.31l3.42,2c.43.25.57.8.32,1.23-.17.28-.47.44-.78.44"/>
      <path class="cls-3" d="M116.14,98.67c-.16,0-.3-.03-.45-.12l-3.42-2c-.43-.25-.57-.8-.31-1.23.24-.43.79-.57,1.22-.32l3.42,2c.43.24.57.79.32,1.22-.17.29-.47.44-.78.44"/>
      <path class="cls-4" d="M37.59,72.56c1.29,1.73,3.15,3.83,5.75,5.79,4.97,3.76,10.01,5.04,12.91,5.52-1.16,5.02-4.85,8.63-9.02,9.01-3.79.36-6.59-2.08-6.97-2.43-3.36-3.02-3.43-7.68-3.48-11.25-.04-2.85.42-5.17.8-6.65"/>
      <path class="cls-4" d="M109.41,65.02c-.9,1.96-2.28,4.41-4.41,6.87-4.08,4.71-8.76,7.01-11.48,8.09,3.16,5.16,8.18,7.75,12.03,6.57,2.8-.85,4.34-3.48,4.92-4.49,2.32-3.95,1.57-8.18,1.12-10.7-.51-2.85-1.47-5.02-2.17-6.34"/>
      <path class="cls-3" d="M127.59,47.8c-.55,0-1.1-.26-1.45-.74-.92-1.28-1.94-2.53-3.02-3.68-2.1-2.27-4.49-4.29-7.09-6-.44-.3-.72-.76-.78-1.28-.07-.52.1-1.05.46-1.44,2.01-2.13,3.77-4.51,5.23-7.02.71-1.24,1.37-2.53,1.94-3.84.39-.9,1.45-1.32,2.35-.91.9.39,1.32,1.45.91,2.34-.63,1.44-1.34,2.85-2.12,4.2-1.25,2.17-2.71,4.23-4.34,6.14,2.19,1.6,4.22,3.41,6.06,5.38,1.17,1.26,2.27,2.61,3.29,4.02.58.8.4,1.92-.4,2.49-.31.23-.68.34-1.05.34"/>
      <path class="cls-3" d="M15.86,59.54c-.24,0-.49-.05-.72-.16-.91-.4-1.31-1.46-.91-2.35.7-1.59,1.5-3.14,2.39-4.62,1.38-2.31,2.99-4.5,4.8-6.51-2-1.54-3.84-3.25-5.52-5.11-1.05-1.16-2.04-2.4-2.95-3.67-.58-.8-.39-1.92.41-2.49s1.92-.39,2.49.41c.84,1.17,1.74,2.29,2.7,3.35,1.95,2.16,4.16,4.11,6.57,5.79.44.3.71.78.76,1.3.04.53-.14,1.05-.51,1.42-2.2,2.22-4.1,4.69-5.69,7.35-.81,1.35-1.55,2.77-2.19,4.22-.3.67-.95,1.07-1.63,1.07"/>
      <path class="cls-3" d="M38.61,31.21c-.11,0-.23,0-.35-.03-6.61-1.32-13.11-5.25-18.84-8.72-6.36-3.86-12.37-7.49-15.27-5.25-.35.27-.52.62-.58,1.11-.24,2.55,2.89,7.22,4.93,9.57.64.74.57,1.87-.17,2.52s-1.87.57-2.52-.17S-.45,22.87.03,17.97c.14-1.47.81-2.71,1.93-3.58,4.83-3.76,11.54.31,19.31,5.01,5.29,3.21,11.27,6.82,17.08,8.15,2.49-1.25,12.36-5.72,30.02-7.56.98-.11,1.86.6,1.96,1.59.1.98-.61,1.86-1.59,1.96-19.41,2.04-29.17,7.4-29.26,7.45-.27.15-.58.23-.88.23"/>
      <path class="cls-3" d="M8.03,43.94c-.46,0-.91-.17-1.26-.52C1.3,37.91.46,32.97.73,29.8c.29-3.5,1.91-5.65,2.09-5.87.61-.78,1.73-.91,2.51-.3.78.6.91,1.72.3,2.49-.21.29-4.66,6.4,3.66,14.77.7.7.7,1.83,0,2.52-.35.35-.81.52-1.26.52"/>
      <path class="cls-3" d="M9.91,93.88c-.89,0-1.66-.65-1.77-1.55-.77-5.84-.68-11.75.26-17.55.93-5.72,2.68-11.24,5.18-16.46C-.83,47.68,3.2,38.18,3.38,37.78c.41-.9,1.46-1.3,2.36-.9s1.3,1.45.91,2.34c-.15.36-3.03,7.89,10.22,17.06.74.51.98,1.49.58,2.28-2.71,5.29-4.57,10.94-5.52,16.79-.89,5.46-.98,11.01-.25,16.5.13.98-.56,1.87-1.53,2-.08,0-.16.02-.24.02"/>
      <path class="cls-3" d="M140.55,80.15c-.92,0-1.7-.71-1.78-1.65-.44-5.52-1.67-10.94-3.68-16.09-2.14-5.53-5.13-10.67-8.89-15.28-.57-.69-.52-1.7.09-2.35,11.09-11.76,6.64-18.53,6.45-18.81-.58-.8-.4-1.91.4-2.49.79-.58,1.92-.39,2.49.4.27.37,6.19,8.81-5.7,22.21,3.54,4.58,6.4,9.64,8.49,15.03,2.13,5.48,3.44,11.24,3.91,17.11.08.98-.66,1.85-1.65,1.93h-.14"/>
      <path class="cls-3" d="M13.31,112.47c-.7,0-1.96-.1-3.29-.69-1.81-.8-4.06-2.64-4.51-6.88-.63-5.96,2.62-13.24,2.76-13.54.41-.9,1.46-1.3,2.36-.9.9.41,1.3,1.46.9,2.37-.05.11-2.99,6.73-2.47,11.69.46,4.47,3.77,4.42,4.44,4.37.98-.1,1.86.61,1.95,1.59.1.98-.61,1.86-1.59,1.96-.06,0-.25.03-.56.03"/>
      <path class="cls-3" d="M36.9,128.73c-4.18,0-7.31-1.43-9.39-2.85-1.95-1.33-3.27-2.85-3.99-3.83-2.43.17-7.89.13-10.47-3.39-3.83-5.23.79-13.38.98-13.72.5-.85,1.59-1.15,2.44-.65.85.49,1.15,1.58.66,2.43-1.03,1.8-3.24,7.04-1.2,9.83,1.63,2.22,6.61,2.07,8.22,1.85.73-.1,1.45.25,1.8.89.19.32,4.77,8,15.27,5.29.95-.25,1.93.32,2.18,1.28.24.95-.33,1.93-1.29,2.17-1.88.49-3.62.7-5.2.7"/>
      <path class="cls-3" d="M99.45,24.82c-.17,0-.36-.03-.53-.09-.1-.03-10.77-3.24-30.17-1.2-.98.1-1.86-.61-1.96-1.59-.1-.98.61-1.86,1.59-1.97,17.66-1.86,28.24.45,30.93,1.17,5.41-2.51,10.51-7.29,15.02-11.52,6.61-6.22,12.34-11.58,17.84-8.92,1.28.62,2.2,1.69,2.64,3.1,1.49,4.69-2.64,12.33-3.11,13.19-.48.85-1.57,1.17-2.43.69s-1.18-1.57-.7-2.42c1.51-2.73,3.61-7.95,2.83-10.38-.15-.48-.39-.78-.78-.97-3.3-1.59-8.42,3.22-13.85,8.3-4.89,4.58-10.42,9.78-16.62,12.45-.23.1-.46.15-.71.15"/>
      <path class="cls-3" d="M132,30.9c-.33,0-.66-.09-.96-.28-.83-.54-1.07-1.64-.53-2.47,6.41-9.94.75-15,.51-15.21-.76-.63-.85-1.75-.23-2.5.64-.76,1.77-.86,2.53-.23.23.18,2.26,1.94,3.27,5.31.91,3.05,1.12,8.05-3.08,14.57-.34.52-.91.81-1.51.81"/>
      <path class="cls-3" d="M140.72,99.1c-.9,0-1.67-.68-1.77-1.59-.1-.98.6-1.86,1.59-1.96.64-.09,3.89-.72,3.42-5.19-.52-5-4.8-10.87-4.84-10.93-.58-.79-.41-1.92.38-2.5s1.91-.41,2.49.38c.2.27,4.9,6.72,5.52,12.68.44,4.23-1.38,6.5-2.98,7.66-1.67,1.21-3.42,1.43-3.62,1.45-.06,0-.13,0-.19,0"/>
      <path class="cls-3" d="M117.55,120.24c-.33,0-.67,0-1.02-.02-.98-.04-1.75-.88-1.71-1.86s.88-1.74,1.86-1.71c10.84.47,13.72-7.99,13.84-8.35.23-.7.85-1.19,1.58-1.24,1.62-.11,6.52-1,7.65-3.52,1.42-3.15-1.84-7.83-3.22-9.36-.65-.73-.59-1.86.14-2.52.73-.66,1.86-.6,2.52.13.26.3,6.47,7.3,3.82,13.21-1.8,3.98-7.13,5.16-9.54,5.5-.51,1.1-1.47,2.86-3.11,4.57-2.28,2.4-6.33,5.17-12.81,5.17"/>
      <path class="cls-3" d="M75.15,84.49c4.77-.29,4.7,6.86,1.03,9.75-4.19-2.07-5.75-9.04-1.03-9.75"/>
      <path class="cls-1" d="M75.27,87.24c1.93-.26,3.22.98,3.37,1.13.17-1.37-.35-2.68-1.37-3.37-.91-.61-1.9-.53-2.13-.51-.15.02-1.16.14-1.96.93-.92.91-1.21,2.35-.81,3.73.11-.18,1.03-1.66,2.89-1.92"/>
      <path class="cls-3" d="M64.56,125.98c-3.13,0-5.39-1.48-6.27-2.17-.39-.3-.45-.86-.16-1.25.3-.38.87-.45,1.25-.16.64.51,2.98,2.11,6.15,1.73,3.36-.4,5.28-2.69,5.79-3.39.16-.22.41-.35.67-.37.27-.02.53.09.71.29,1.85,2,4.56,2.81,6.91,2.07,2.18-.69,3.31-2.47,3.69-3.2.13-.24.37-.42.64-.46.28-.04.56.04.76.24.66.62,3.08,2.63,6.63,2.43,3.83-.21,6.1-2.88,6.52-3.42.3-.37.84-.45,1.23-.17.57.42,3.56,2.41,7.08,1.32,1.89-.58,3.12-1.79,3.82-2.7.3-.39.86-.46,1.25-.17s.46.86.17,1.25c-.86,1.12-2.37,2.6-4.71,3.32-3.51,1.09-6.58-.3-7.97-1.12-1.13,1.21-3.58,3.27-7.29,3.48-3.31.18-5.8-1.24-7.12-2.22-.74,1.06-2.08,2.47-4.17,3.13-2.7.85-5.76.12-8.03-1.86-1.06,1.17-3.18,2.95-6.37,3.33-.4.04-.8.07-1.19.07"/>
      <path class="cls-3" d="M75.25,85.38c-1.19.19-1.88.87-2.06,2.02-.28,1.78.83,4.44,2.88,5.75,1.73-1.71,2.25-4.54,1.61-6.22-.42-1.09-1.22-1.61-2.43-1.55ZM76.18,95.14c-.14,0-.27-.03-.39-.1-2.87-1.41-4.82-4.96-4.36-7.91.3-1.94,1.6-3.22,3.59-3.52.03,0,.05,0,.08,0,2-.12,3.55.86,4.25,2.69,1.05,2.8-.11,6.67-2.62,8.65-.16.12-.36.19-.55.19"/>
    </g>
  </g>
</svg>