<?xml version="1.0" encoding="UTF-8"?>
<svg id="Layer_2" data-name="Layer 2" xmlns="http://www.w3.org/2000/svg" viewBox="0 0 99.61 150.89">
  <defs>
    <style>
      .cls-1 {
        fill: #1a9684;
      }

      .cls-2 {
        fill: #fff;
      }

      .cls-3 {
        fill: #cdc9a7;
      }

      .cls-4 {
        fill: #e0cf61;
      }

      .cls-5 {
        fill: #bbb392;
      }

      .cls-6 {
        fill: #640000;
      }

      .cls-7 {
        fill: #bf3945;
      }

      .cls-8 {
        fill: #e4e1d2;
      }

      .cls-9 {
        fill: #2fb9a8;
      }

      .cls-10 {
        fill: #958965;
      }

      .cls-11 {
        fill: #123534;
      }
    </style>
  </defs>
  <g id="Layer_1-2" data-name="Layer 1">
    <g>
      <path class="cls-9" d="M13.36,76.71c.15.01.29.03.44.04-.18-.15-.33-.32-.47-.5-.95-1.3-.88-3.02-.51-4.5,0,0-3.69.38-4.14-3.86-.38-3.6,1.69-8.19,1.69-8.19-.36-2.71-.56-6.55.16-11.04.8-4.87,2.39-8.69,3.69-11.23-9.64-6.67-7.03-12.48-7.03-12.48-.5-2.88-.99-5.75-1.49-8.63l2.88,2.49s-5.54-6.36-2.66-8.59c4.46-3.46,13.73,6.98,23.05,8.84,0,0,6.4-3.61,19.41-4.98,13.02-1.37,20.03.83,20.03.83,8.73-3.76,15.63-15.9,20.71-13.43,1.89.92,1.32,3.77.51,6.01,0,0,3.56,2.97,1.31,8.65,0,0,3.76,5.14-4.28,13.67,1.8,2.21,4.16,5.62,5.94,10.21,1.65,4.24,2.24,8.04,2.46,10.76,0,0,2.98,4.06,3.36,7.66.45,4.25-3.25,4.63-3.25,4.63.16.27,1.33,2.34.43,4.51-.87,2.1-3.32,3.39-5.94,2.96-.18.53-.85,2.33-2.53,3.89,2.68,4.33,8.4,15.02,6.41,28.16-.49,3.26-1.38,6.12-2.38,8.56-.5,1.72-1.47,4.23-3.5,6.63-2.45,2.89-6.28,5.47-7.48,4.56-1.05-.79.46-3.76-.54-4.34-.72-.41-1.81,1.1-3.98,2.05-1.86.82-3.8,1.47-5.77,2,1.9-14.74,3.81-29.48,5.71-44.22-6.01,1.54-13,2.9-20.84,3.68-3.71.37-7.24.57-10.6.66,1.76,5.94,4.5,19.46-2.03,33.74-10.73,23.47-36.64,27.37-38.42,27.61-8.18-47.64,5.52-63.29,9.65-66.82"/>
      <path class="cls-1" d="M76.77,119.72c2.3-.16,3.42.4,4.79.38,2.41-.03,5.85-1.85,10.12-10.37-6.9,20.38-23.92,28.82-23.92,28.82.71-5.44,1.41-10.88,2.11-16.32,1.5-1.02,3.88-2.3,6.91-2.51"/>
      <path class="cls-1" d="M84.67,15.89c.28.16,1.65,1.02,2.11,2.81.5,1.93-.44,3.44-.6,3.68.24,0,1.29.05,2.14.88,1.14,1.11.9,2.67.87,2.81-.84,1.25-1.69,2.5-2.54,3.76-.43-.84-1.1-1.94-2.15-3.02-1.69-1.75-3.52-2.6-4.62-3.01,1.59-2.64,3.19-5.27,4.79-7.9"/>
      <path class="cls-1" d="M13.27,23.4c-.21.19-1.52,1.46-1.46,3.47.06,2.23,1.75,3.48,1.94,3.62-1.65.16-2.93,1.42-3.08,2.88-.19,1.75,1.26,3.5,3.28,3.62,1.15-1.33,2.32-2.81,3.48-4.42.66-.9,1.26-1.8,1.82-2.67-1.99-2.17-3.99-4.34-5.99-6.5"/>
      <path class="cls-10" d="M89.22,4.44c-2.08-.97-5.55,3.47-10.81,7.81-1.93,1.6-4.88,3.82-8.9,6.07-2.08-.56-5.08-1.23-8.73-1.58-7.9-.76-14.03.44-18.57,1.37-3.6.73-8.39,1.98-13.85,4.18-.84-.07-2.21-.24-3.82-.73-6.88-2.1-8.75-7.24-14.88-8.4-.96-.18-2.47-.35-4.43-.06-.13-1.31.02-2.35.69-2.87,4.46-3.46,13.73,6.98,23.05,8.84,0,0,6.4-3.61,19.41-4.98,13.02-1.37,20.03.83,20.03.83,8.73-3.76,15.63-15.9,20.71-13.43,1.38.67,1.45,2.37,1.07,4.11-.15-.37-.43-.92-.97-1.17"/>
      <path class="cls-8" d="M20.9,133.61c8.84.97,15.38-17.68,15.38-17.68,10.16-2.97,5.77-24.98,4-32.35-.2-.8-.41-1.59-.61-2.4-.49.04-3.43.21-5.69-1.99-1.4-1.37-1.82-2.97-1.97-3.66-.68.25-2.03.63-3.67.36-.79-.14-2.68-.47-3.9-2.16-.94-1.31-.93-2.79-.89-3.45,0,0-2.95.46-4.27-.66-1.66-1.42.06-4.98.06-4.98-1.21.06-2.82-.74-3.35-1.23-4.01-3.75.8-33.26,18.37-35.8,12.2-1.76,16.83,13.2,16.83,13.2,0,0,1.42-15.6,13.72-16.41,17.71-1.17,28.55,26.69,25.41,31.2-.41.59-1.82,1.71-3.02,1.9,0,0,2.41,3.12,1.09,4.85-1.05,1.38-4.04,1.54-4.04,1.54,1.15.95,1.69,2.42,1.39,3.77-.39,1.73-2.11,3.03-4.11,2.95.12.2.94,1.68.31,3.39-.77,2.07-2.98,2.49-3.08,2.51-.02.09-.04.18-.06.27l.58-.06s9.93,12.71,5.57,32.99c-4.36,20.28-18.64,29.96-18.64,29.96,0,0-4.97,3.76-9.2,0,0,0-3.63,4.36-8.11-.24,0,0-4.23,3.99-8.95.72,0,0-1.94,3.75-6.9.12,0,0-2.42,4.11-7.5.72l-21.91,2.54c12.47-2.42,17.19-9.93,17.19-9.93"/>
      <path class="cls-5" d="M39.67,81.19c.3-.01.72-.07,1.19-.26.79-.32,1.27-.85,1.49-1.14.28.22,2.1,1.63,4.59,1.19,2.27-.4,3.47-2.03,3.7-2.36,1.35,1.46,3.33,2.06,5.08,1.51,1.73-.55,2.55-2.01,2.73-2.36.26.24,2.58,2.25,5.67,1.61,2.12-.44,3.35-1.86,3.71-2.31.11.12,1.96,2.02,4.55,1.48,2.17-.44,3.17-2.24,3.31-2.5.12.13.86.92,2.02.9.8-.01,1.35-.4,1.55-.55.33,1.09.67,2.19,1.01,3.28-.72.61-2.46,1.94-5.07,2.34-3.1.49-5.48-.62-6.29-1.03-.23.39-1.37,2.28-3.76,2.92-2.97.79-5.29-1.02-5.54-1.22-.47.45-1.72,1.55-3.67,1.88-2.78.46-4.86-1.02-5.25-1.32-.8.51-2.37,1.36-4.53,1.59-2.64.28-4.68-.54-5.56-.95-.32-.89-.64-1.79-.95-2.69"/>
      <path class="cls-3" d="M50.54,140.92c.62.33,1.29.58,2,.55,1.46-.07,2.67-1.07,4.11-1.18.36-.03.7.01,1.05.13.32.11.62.26.93.4.32.14.63.23.97.29.33.06.68.1,1.02.11.7.02,1.42-.04,2.1-.24.74-.23,1.43-.62,2.09-1.01.67-.4,1.34-.77,2.03-1.12.36-.19.72-.37,1.07-.59l.56-.08c.32.43.89,1.29,1.29,2.4,0,0,3.6,8.11-7.49,8.11h-4.11c-9.7,0-8.16-6.21-7.63-7.76t.01,0"/>
      <path class="cls-4" d="M54.69,143.04c1.2-.19,2.09-.7,2.6-1.05.78.51,1.75.99,2.92,1.21,4.8.94,8.71-3.06,9.17-3.54-.33-.68-.68-1.2-.92-1.5l-.56.08c-.34.22-.71.41-1.07.59-.69.35-1.36.73-2.03,1.12-.66.39-1.35.79-2.09,1.01-.67.2-1.4.27-2.1.24-.34-.01-.68-.05-1.02-.11s-.66-.16-.97-.29c-.31-.14-.61-.29-.93-.4-.34-.12-.68-.16-1.05-.14-1.45.11-2.66,1.12-4.11,1.19-.71.03-1.38-.21-2-.55t-.01,0c-.1.28-.23.71-.31,1.21.53.32,2.25,1.27,4.47.91"/>
      <path class="cls-4" d="M52.28,145.65c1.26.18,2.53.08,3.8.02,1.81-.08,3.63.03,5.45.07,1.05.03,2.1.04,3.14.02.95-.03,1.91-.06,2.85-.21.86-.14,1.71-.38,2.51-.69.03-.01.06-.02.09-.03-.56,1.96-2.49,3.86-7.85,3.86h-4.11c-5.26,0-7.21-1.82-7.82-3.74.56.4,1.25.62,1.95.72"/>
      <path class="cls-3" d="M25.85,141.78c.56.24,1.15.38,1.75.43.64.06,1.29.02,1.9-.19.29-.1.59-.22.86-.38.25-.15.5-.32.73-.49.03-.02.06-.04.09-.06l13.67.25c.54,1.55,2.08,7.77-7.63,7.77h-4.11c-9.29,0-8.27-5.7-7.7-7.55.14.08.29.15.44.21"/>
      <path class="cls-4" d="M27.89,144.23c2.72.31,4.81-.84,5.58-1.32.69.31,2.2.88,4.13.66,1.3-.14,2.29-.59,2.9-.92.56.33,1.51.79,2.77.92.67.07,1.25.03,1.71-.04.08-.21.19-.57.18-1.02-.01-.54-.19-.95-.3-1.16l-13.67-.25s-.06.04-.09.06c-.24.16-.48.34-.73.49-.27.16-.56.28-.86.38-.62.2-1.26.24-1.9.19-.6-.05-1.19-.19-1.75-.43-.15-.06-.29-.14-.44-.21-.11.29-.23.69-.27,1.18-.02.24-.01.47,0,.66.66.33,1.59.68,2.74.82"/>
      <path class="cls-4" d="M28.3,145.54c1.51.23,3.03.21,4.55.21h7.91c.81,0,1.63-.01,2.44.01.54.02,1.12.05,1.69.02-.75,1.76-2.79,3.33-7.67,3.33h-4.11c-5.93,0-7.66-2.32-7.99-4.48,1.01.44,2.07.75,3.17.91"/>
      <path class="cls-1" d="M82,81.19c1.17-.19,2.89-.6,4.72-1.65,1.15-.66,2.05-1.39,2.7-2.02-.76-1.02-1.53-2.05-2.29-3.07-.53.53-1.66,1.53-3.42,2.08-1.95.61-3.6.34-4.34.18.88,1.49,1.75,2.98,2.63,4.48"/>
      <path class="cls-1" d="M31.56,79.22c.61.58,2.41,2.14,5.14,2.38,1.37.12,2.5-.13,3.24-.37.27,1.06.54,2.11.81,3.16-.81.45-2.44,1.21-4.64,1.28-1.97.06-3.5-.46-4.33-.82-.49.31-3.79,2.34-7.82,1.12-3.34-1.01-4.97-3.57-5.36-4.21-.71.25-2.21.68-4.08.37-2.25-.37-3.69-1.59-4.24-2.1,1.01-1.27,2.02-2.53,3.03-3.79l-.41-2.32c.8.42,2.18,1.01,3.99,1.15,1.46.11,2.67-.11,3.46-.33.29.57,1.88,3.53,5.44,4.62,2.69.83,4.98.13,5.76-.15"/>
      <path class="cls-1" d="M17.83,130.08c.4-.42.9-.7,1.47-.82.86-.18,1.93-.5,3.08-1.07,0,0,1.69-.85,3.28-2.36,2.07-1.97,4.5-6.11,6.37-11.75.27-.81.91-1.45,1.73-1.69,1.66-.51,3.85-1.54,5.27-3.64.96-1.43,1.21-2.85,1.33-3.8.92-6.89-.48-21.16-.68-23.16,1.92,7.24,2.68,13.34,3.01,17.74.5,6.64.03,9.93-1.99,12.7-1.42,1.94-3.2,3.07-4.44,3.7-.26,1.63-2.23,12.89-10.97,16.59-1.17.5-2.63.93-4.41,1.09-1.41,1.74-3.84,4.3-7.51,6.46-3.85,2.25-7.42,3.11-9.68,3.47-.17-.98-.33-1.97-.49-2.98-.15-.98-.29-1.94-.43-2.89,1.97-.24,4.93-.84,8.18-2.47,3.17-1.6,5.42-3.58,6.86-5.1"/>
      <path class="cls-5" d="M85.68,97.63c-.32.5-1.31,1.86-3.09,2.38-2.19.63-4.69-.28-6.33-2.3-.18.32-1.9,3.24-5.4,3.67-2.66.32-5.31-.93-6.86-3.21-.18.34-1.81,3.24-5.32,3.8-3.79.61-6.36-2.04-6.57-2.27-.21.4-1.09,1.99-3.06,2.72-1.62.59-3.02.26-3.51.12.24.98,1.67,7.07-2.12,12.21-1.68,2.28-3.75,3.51-5.07,4.14-.14.99-1.98,12.7-11.01,16.2-1.36.53-3.32,1.04-5.84.95-.4.95-1.12,2.32-2.46,3.54-3.21,2.94-7.31,2.71-8.2,2.64,3.36-2.88,6.72-5.75,10.07-8.62,1.95-.62,5.69-2.11,9.09-5.62,4.41-4.54,5.55-9.71,5.89-11.71,1.35-.94,3.76-2.9,5.47-6.23,2.5-4.88,1.88-9.5,1.6-11.08.54.46,1.67,1.27,3.17,1.31,2.4.06,4.79-1.88,5.75-4.86.99,2.58,3.51,4.21,6.15,4.03,2.94-.2,5.4-2.61,5.68-5.71.4,3.05,3.15,5.24,6.15,4.98,2.91-.26,5.2-2.77,5.18-5.75,1.3,3.32,4.44,4.97,6.89,4.27,2.12-.61,3.06-2.81,3.21-3.19.18,1.2.36,2.4.54,3.59"/>
      <path class="cls-2" d="M34.85,36.98c10.89-.26,14.39,26.15-3.33,27.04-13.55.68-12.75-26.67,3.33-27.04"/>
      <path class="cls-6" d="M34.89,38.79c-1.41.03-2.78.31-4.05.83-1.26.53-2.41,1.32-3.41,2.32-.99,1-1.84,2.2-2.5,3.52s-1.17,2.75-1.47,4.24c-.32,1.48-.46,3.02-.38,4.55.08,1.53.37,3.06.96,4.47.58,1.41,1.47,2.72,2.71,3.64,1.23.94,2.78,1.43,4.37,1.49.2,0,.4-.01.6-.03.2-.02.4-.05.59-.07.4-.06.79-.13,1.18-.22.77-.18,1.54-.41,2.26-.72,1.45-.61,2.74-1.54,3.77-2.67,1.03-1.14,1.79-2.49,2.29-3.91.5-1.43.76-2.94.81-4.45.06-1.51-.09-3.03-.41-4.49-.32-1.46-.81-2.87-1.47-4.14-.67-1.27-1.52-2.4-2.53-3.19s-2.13-1.2-3.31-1.17ZM34.8,35.16c1.03-.02,2.08.15,3.05.51s1.84.9,2.59,1.53c1.51,1.27,2.55,2.86,3.29,4.5,1.46,3.3,1.81,6.89,1.31,10.32-.27,1.71-.76,3.39-1.53,4.94-.76,1.55-1.81,2.97-3.1,4.1-.64.57-1.34,1.06-2.09,1.47-.74.41-1.52.73-2.32.99-.8.25-1.61.42-2.43.53-.41.05-.82.08-1.23.11-.41.02-.82.02-1.23.03-.82.05-1.66-.01-2.48-.2-.82-.19-1.62-.51-2.34-.95-1.47-.89-2.63-2.23-3.46-3.73s-1.36-3.15-1.65-4.84c-.29-1.69-.35-3.42-.19-5.14.18-1.72.56-3.43,1.21-5.08.65-1.64,1.56-3.21,2.77-4.59s2.72-2.53,4.43-3.3c.85-.38,1.75-.68,2.66-.88s1.83-.29,2.74-.32"/>
      <path class="cls-2" d="M66.37,33.66c-10.71,2.02-8.64,28.57,8.88,25.76,13.4-2.15,6.93-28.73-8.88-25.76"/>
      <path class="cls-6" d="M66.04,31.87c.9-.16,1.82-.26,2.75-.25.93,0,1.86.11,2.77.31,1.83.4,3.56,1.21,5.02,2.31,1.47,1.09,2.69,2.44,3.67,3.91.97,1.48,1.71,3.07,2.23,4.72.51,1.65.82,3.35.88,5.06.07,1.71-.11,3.43-.61,5.08-.49,1.63-1.36,3.19-2.6,4.36-.62.59-1.33,1.07-2.08,1.42-.76.36-1.57.59-2.38.71-.41.07-.81.16-1.21.23-.4.06-.81.11-1.23.15-.82.06-1.66.07-2.49-.02s-1.66-.24-2.47-.49c-.81-.24-1.6-.58-2.35-1-1.5-.84-2.82-2.01-3.89-3.37-1.07-1.36-1.91-2.9-2.53-4.52-1.2-3.25-1.6-6.82-.86-10.36.38-1.76,1.07-3.53,2.28-5.09.6-.77,1.34-1.48,2.22-2.03.87-.55,1.86-.94,2.88-1.14ZM66.71,35.45c-1.16.21-2.18.85-2.99,1.83s-1.42,2.27-1.81,3.65c-.39,1.38-.58,2.86-.58,4.36-.01,1.5.16,3.01.54,4.47.36,1.46.92,2.89,1.71,4.19.79,1.29,1.81,2.45,3.05,3.35,1.24.89,2.69,1.53,4.24,1.82.77.16,1.56.23,2.36.24.4,0,.8,0,1.2-.03.2-.01.4-.03.6-.05.2-.02.4-.05.59-.1,1.55-.38,2.97-1.19,3.97-2.36,1.02-1.16,1.61-2.63,1.89-4.13.28-1.5.25-3.06.01-4.58-.24-1.51-.69-2.99-1.32-4.37-.61-1.39-1.4-2.69-2.33-3.84-.92-1.15-1.99-2.15-3.18-2.93-1.18-.77-2.47-1.31-3.82-1.56s-2.74-.24-4.13.03"/>
      <path class="cls-11" d="M36.83,38.12c-6.37-1.47-12.91,7.47-11.72,15.13.63,4.08,3.94,9.19,8.67,9.37,4.99.19,8.44-5.21,9.48-8.98,1.8-6.49-1.77-14.43-6.43-15.51"/>
      <path class="cls-2" d="M40.63,44.98c.13,1.23-.76,2.33-1.99,2.46s-2.33-.77-2.46-2c-.13-1.23.76-2.33,1.99-2.46s2.33.76,2.46,1.99"/>
      <path class="cls-11" d="M64.67,35.2c5.92-2.77,14.18,4.62,14.61,12.36.23,4.12-1.94,9.81-6.54,10.97-4.85,1.23-9.34-3.35-11.14-6.81-3.11-5.97-1.27-14.49,3.07-16.51"/>
      <path class="cls-2" d="M62.38,42.69c.13,1.23,1.23,2.12,2.46,1.99s2.12-1.23,1.99-2.46-1.23-2.12-2.46-1.99-2.12,1.23-1.99,2.46"/>
      <path class="cls-6" d="M30.55,69.45c-.1,0-.2-.02-.29-.08l-2.21-1.29c-.28-.16-.37-.52-.21-.79.16-.28.52-.37.8-.21l2.21,1.29c.28.16.37.52.2.8-.11.18-.3.28-.5.28"/>
      <path class="cls-6" d="M33.54,68.77c-.1,0-.2-.03-.29-.08l-2.21-1.29c-.28-.16-.37-.52-.21-.8.16-.28.52-.37.8-.21l2.21,1.3c.28.16.37.51.2.79-.11.19-.3.29-.5.29"/>
      <path class="cls-6" d="M76.24,64.65c-.1,0-.2-.02-.29-.08l-2.21-1.29c-.27-.16-.37-.52-.2-.8.16-.27.51-.37.79-.2l2.21,1.29c.28.16.37.52.21.8-.11.18-.31.28-.5.28"/>
      <path class="cls-6" d="M79.23,63.97c-.1,0-.2-.02-.29-.08l-2.21-1.29c-.28-.16-.37-.52-.2-.8.16-.28.51-.37.79-.21l2.21,1.3c.28.16.37.51.21.79-.11.19-.31.29-.5.29"/>
      <path class="cls-7" d="M28.3,47.04c.84,1.12,2.05,2.49,3.73,3.76,3.22,2.44,6.49,3.27,8.37,3.58-.75,3.25-3.15,5.59-5.85,5.84-2.46.23-4.27-1.35-4.52-1.58-2.18-1.95-2.23-4.98-2.25-7.29-.03-1.85.27-3.35.52-4.31"/>
      <path class="cls-7" d="M74.87,42.15c-.58,1.27-1.48,2.86-2.86,4.45-2.64,3.05-5.68,4.54-7.45,5.24,2.05,3.34,5.3,5.02,7.8,4.26,1.81-.55,2.81-2.25,3.19-2.91,1.5-2.56,1.02-5.3.72-6.94-.33-1.85-.95-3.25-1.41-4.11"/>
      <path class="cls-6" d="M86.65,30.99c-.36,0-.71-.17-.94-.48-.6-.83-1.26-1.64-1.95-2.38-1.36-1.47-2.91-2.78-4.6-3.89-.28-.19-.47-.49-.51-.83-.05-.34.07-.68.3-.93,1.31-1.38,2.45-2.92,3.39-4.55.46-.8.89-1.64,1.26-2.49.25-.58.94-.85,1.53-.59.58.25.85.94.59,1.52-.41.93-.87,1.85-1.37,2.72-.81,1.41-1.76,2.74-2.81,3.98,1.42,1.04,2.73,2.21,3.93,3.49.76.82,1.47,1.69,2.13,2.6.38.52.26,1.24-.26,1.62-.2.15-.44.22-.68.22"/>
      <path class="cls-6" d="M14.22,38.6c-.16,0-.32-.03-.47-.1-.59-.26-.85-.94-.59-1.53.45-1.03.97-2.03,1.55-2.99.89-1.5,1.94-2.92,3.11-4.22-1.29-1-2.49-2.11-3.58-3.31-.68-.75-1.32-1.55-1.92-2.38-.37-.52-.25-1.24.27-1.62s1.24-.25,1.62.27c.54.76,1.13,1.49,1.75,2.18,1.27,1.4,2.69,2.67,4.26,3.75.28.2.46.5.49.84.03.34-.09.68-.33.92-1.42,1.44-2.66,3.04-3.69,4.76-.53.88-1.01,1.8-1.42,2.73-.19.44-.62.69-1.06.69"/>
      <path class="cls-6" d="M28.96,20.23c-.07,0-.15,0-.23-.02-4.29-.86-8.5-3.41-12.21-5.66-4.12-2.5-8.02-4.86-9.9-3.41-.23.18-.34.4-.37.72-.16,1.66,1.88,4.68,3.2,6.2.42.48.37,1.21-.11,1.63s-1.21.37-1.63-.11-4.06-4.77-3.75-7.94c.09-.95.53-1.76,1.25-2.32,3.13-2.43,7.48.2,12.52,3.25,3.43,2.08,7.3,4.42,11.07,5.28,1.62-.81,8.01-3.71,19.46-4.9.64-.07,1.2.39,1.27,1.03.07.63-.4,1.2-1.03,1.27-12.58,1.32-18.91,4.8-18.97,4.83-.18.1-.37.15-.57.15"/>
      <path class="cls-6" d="M9.14,28.48c-.3,0-.59-.11-.82-.34-3.54-3.56-4.08-6.77-3.92-8.82.19-2.27,1.24-3.66,1.36-3.81.4-.5,1.12-.59,1.63-.19.5.39.59,1.11.2,1.62-.14.19-3.02,4.15,2.37,9.58.45.45.45,1.19,0,1.63-.23.23-.53.34-.82.34"/>
      <path class="cls-6" d="M10.36,60.87c-.58,0-1.07-.42-1.15-1.01-.5-3.79-.44-7.62.17-11.38.6-3.71,1.73-7.29,3.36-10.67-9.34-6.9-6.73-13.06-6.62-13.32.27-.58.95-.84,1.53-.58s.84.94.59,1.52c-.1.23-1.97,5.11,6.63,11.06.48.33.64.97.37,1.48-1.76,3.43-2.96,7.09-3.58,10.89-.58,3.54-.63,7.14-.16,10.7.08.64-.36,1.21-.99,1.3-.05,0-.1.01-.15.01"/>
      <path class="cls-6" d="M95.06,51.96c-.6,0-1.1-.46-1.15-1.07-.28-3.58-1.08-7.09-2.38-10.43-1.39-3.59-3.33-6.92-5.76-9.91-.37-.45-.34-1.1.06-1.53,7.19-7.62,4.3-12.02,4.18-12.2-.38-.52-.26-1.24.26-1.62.51-.37,1.24-.25,1.62.26.18.24,4.01,5.71-3.69,14.4,2.29,2.97,4.15,6.25,5.5,9.75,1.38,3.55,2.23,7.29,2.54,11.09.05.64-.43,1.2-1.07,1.25h-.09"/>
      <path class="cls-6" d="M12.56,72.92c-.45,0-1.27-.06-2.13-.45-1.18-.52-2.63-1.71-2.92-4.46-.41-3.86,1.7-8.58,1.79-8.78.27-.58.95-.84,1.53-.58.58.27.84.95.58,1.54-.03.07-1.94,4.36-1.6,7.58.3,2.9,2.45,2.86,2.88,2.83.64-.07,1.2.4,1.27,1.03.07.64-.4,1.21-1.03,1.27-.04,0-.16.02-.36.02"/>
      <path class="cls-6" d="M27.86,83.46c-2.71,0-4.74-.93-6.09-1.85-1.27-.86-2.12-1.85-2.59-2.48-1.58.11-5.12.08-6.79-2.2-2.49-3.39.51-8.67.64-8.89.32-.55,1.03-.75,1.58-.42.55.32.75,1.02.43,1.58-.67,1.16-2.1,4.56-.78,6.37,1.06,1.44,4.28,1.34,5.33,1.2.47-.07.94.16,1.17.58.12.21,3.09,5.19,9.9,3.43.62-.16,1.25.21,1.41.83.16.62-.21,1.25-.84,1.41-1.22.32-2.34.45-3.37.45"/>
      <path class="cls-6" d="M68.41,16.09c-.11,0-.23-.02-.34-.06-.07-.02-6.98-2.1-19.56-.78-.64.07-1.2-.4-1.27-1.03-.07-.64.4-1.21,1.03-1.28,11.45-1.2,18.31.29,20.06.76,3.51-1.63,6.81-4.73,9.74-7.47,4.29-4.03,8-7.51,11.56-5.79.83.4,1.42,1.1,1.71,2.01.97,3.04-1.71,7.99-2.02,8.55-.31.55-1.02.76-1.58.45s-.76-1.02-.45-1.57c.98-1.77,2.34-5.15,1.84-6.73-.1-.31-.25-.5-.51-.63-2.14-1.03-5.46,2.08-8.98,5.38-3.17,2.97-6.76,6.34-10.77,8.07-.15.06-.3.1-.46.1"/>
      <path class="cls-6" d="M89.51,20.03c-.21,0-.43-.06-.62-.18-.54-.35-.69-1.06-.34-1.6,4.16-6.45.49-9.72.33-9.86-.49-.41-.55-1.14-.15-1.62.41-.49,1.15-.56,1.64-.15.15.12,1.46,1.26,2.12,3.44.59,1.98.73,5.22-1.99,9.45-.22.34-.59.53-.98.53"/>
      <path class="cls-6" d="M95.17,64.25c-.58,0-1.08-.44-1.15-1.03-.07-.64.39-1.21,1.03-1.27.41-.06,2.52-.47,2.21-3.37-.34-3.24-3.11-7.05-3.14-7.08-.38-.51-.27-1.24.25-1.62s1.24-.27,1.62.25c.13.18,3.17,4.36,3.58,8.22.29,2.74-.89,4.21-1.93,4.97-1.08.79-2.22.93-2.34.94-.04,0-.08,0-.12,0"/>
      <path class="cls-6" d="M80.15,77.95c-.21,0-.44,0-.66-.01-.64-.03-1.14-.57-1.11-1.21s.57-1.13,1.21-1.11c7.03.31,8.89-5.18,8.97-5.41.15-.45.55-.77,1.02-.8,1.05-.07,4.23-.65,4.96-2.28.92-2.04-1.19-5.07-2.08-6.07-.42-.47-.38-1.21.09-1.63.47-.43,1.2-.39,1.63.08.17.19,4.2,4.73,2.47,8.56-1.16,2.58-4.62,3.34-6.19,3.56-.33.71-.95,1.85-2.02,2.96-1.48,1.55-4.1,3.35-8.3,3.35"/>
      <path class="cls-6" d="M52.66,54.78c3.09-.19,3.05,4.45.67,6.32-2.72-1.34-3.73-5.86-.67-6.32"/>
      <path class="cls-1" d="M52.74,56.56c1.25-.17,2.09.64,2.19.73.11-.89-.23-1.73-.89-2.19-.59-.4-1.23-.34-1.38-.33-.1.01-.75.09-1.27.6-.6.59-.79,1.53-.53,2.42.07-.12.67-1.07,1.88-1.24"/>
      <path class="cls-6" d="M3.71,144.69c-.55,0-1.05-.4-1.14-.96-8.24-48,5.6-64.11,10.04-67.9.49-.42,1.22-.36,1.63.13.42.48.36,1.21-.13,1.63-1.77,1.51-6.2,6.14-9.08,16.31-3.58,12.65-3.64,29.29-.18,49.44.11.63-.32,1.23-.94,1.34-.07.01-.14.02-.2.02"/>
      <path class="cls-6" d="M3.71,144.69c-.56,0-1.06-.41-1.14-.98-.1-.61.31-1.19.92-1.31,11.77-2.29,16.39-9.34,16.43-9.41.24-.37.67-.58,1.1-.53,6.5.71,12.42-11.96,14.16-16.9.12-.36.41-.63.77-.73,5.56-1.63,6.03-10.4,5.45-17.48-.66-8.03-2.83-15.76-2.85-15.84-.17-.62.19-1.25.8-1.43s1.25.19,1.43.8c.09.32,2.24,7.99,2.93,16.25.41,4.91.2,9.01-.63,12.16-1.03,3.95-3.01,6.5-5.91,7.57-.52,1.37-2.02,5.14-4.28,8.88-3.64,6.02-7.43,9.07-11.31,9.07-.03,0-.07,0-.11,0-.9,1.19-3.31,3.98-7.73,6.41l11.75-1.36c.27-.03.55.03.77.19,1.43.95,2.72,1.31,3.82,1.07,1.34-.29,2.04-1.42,2.05-1.43.16-.28.44-.47.76-.54.32-.07.65.01.92.2,1.47,1.07,2.77,1.53,3.77,1.31.97-.21,1.41-1,1.43-1.03.15-.3.42-.51.75-.59s.66-.01.93.18c3.88,2.68,7.37-.49,7.51-.62.46-.43,1.18-.41,1.62.04,1.18,1.2,2.36,1.8,3.5,1.76,1.68-.06,2.88-1.44,2.9-1.46.2-.23.49-.38.8-.4.31-.02.62.08.85.28,3.46,3.07,7.56.07,7.74-.06.01-.01.03-.02.05-.03.03-.02,3.53-2.43,7.5-7.23,3.65-4.41,8.46-11.81,10.66-22.02,2.18-10.17.62-18.33-1.08-23.38-1.85-5.5-4.24-8.62-4.27-8.65-.4-.5-.31-1.23.2-1.62.51-.39,1.23-.31,1.63.2.1.14,2.62,3.4,4.6,9.23,1.81,5.35,3.5,13.98,1.19,24.72-2.3,10.71-7.36,18.46-11.2,23.08-4.03,4.86-7.54,7.33-7.9,7.58-1.85,1.38-6.08,3.11-9.8.58-.79.63-2.08,1.43-3.75,1.5-1.56.06-3.07-.52-4.5-1.73-1.88,1.32-5.2,2.53-8.62.72-.47.47-1.18.99-2.17,1.22-1.45.34-3.06-.02-4.79-1.07-.58.58-1.48,1.25-2.72,1.54-1.65.38-3.42-.02-5.28-1.16l-21.5,2.5s-.09,0-.14,0"/>
      <path class="cls-6" d="M67.76,139.71c-.43,0-.84-.24-1.04-.64-.28-.57-.05-1.27.52-1.55.05-.03,5.19-2.62,10.84-8.24,5.19-5.16,11.88-14.01,14.32-26.87,2.84-14.95-3.35-23.99-6.14-27.19-.42-.48-.37-1.21.11-1.63.48-.42,1.21-.37,1.63.11,3.01,3.45,9.69,13.19,6.67,29.14-2.56,13.49-9.59,22.76-15.03,28.15-5.9,5.85-11.16,8.49-11.38,8.6-.16.08-.34.12-.51.12"/>
      <path class="cls-6" d="M9.16,123.8c-1.05,0-2.08-.33-3.08-.98-.27-.18-.34-.54-.17-.8s.54-.34.8-.17c1.18.77,2.37.98,3.62.62,4.02-1.14,7.1-7.63,7.12-7.7.11-.24.39-.38.66-.32,3.44.8,6.79-5.51,7.79-8.01.1-.26.38-.41.66-.35,1.27.28,2.41.1,3.38-.55,2.46-1.63,3.2-5.64,3.21-5.68.06-.32.36-.53.67-.47.31.06.52.36.46.67-.03.19-.84,4.54-3.71,6.45-1.12.75-2.4,1.02-3.8.81-.79,1.8-3.94,8.37-8.06,8.37-.14,0-.28-.01-.42-.03-.77,1.52-3.72,6.8-7.66,7.93-.5.14-.99.21-1.49.21"/>
      <path class="cls-6" d="M11.49,104.79c-.85,0-1.66-.29-2.41-.85-.25-.19-.31-.55-.11-.81.19-.26.55-.31.81-.12.74.56,1.51.73,2.36.55,3.1-.7,5.9-5.99,5.93-6.04.12-.24.4-.36.66-.29,3.73.97,6.67-6.38,6.69-6.45.12-.29.45-.44.75-.33.29.12.44.45.33.75-.13.33-3.14,7.86-7.62,7.24-.75,1.32-3.38,5.55-6.49,6.25-.3.07-.6.11-.89.11"/>
      <path class="cls-6" d="M45.66,100.88c-1.12,0-2.03-.32-2.7-.97-1.17-1.13-1.11-2.81-1.1-2.88.02-.32.28-.56.6-.55.32.02.56.29.55.6,0,.01-.04,1.24.75,2.01.51.49,1.29.7,2.31.62,2.15-.17,4.68-2.21,5.15-6.31.03-.29.28-.51.58-.51h0c.3,0,.54.23.57.53.2,2.1.9,3.7,2.05,4.62.93.75,2.12,1.03,3.53.85,1.77-.22,5.24-3.05,5.23-5.94,0-.31.24-.56.55-.58.32-.02.58.21.6.53.29,3.3,2.29,5.26,5.37,5.26h.14c3.86-.08,4.89-6.33,4.9-6.4.05-.27.28-.48.56-.49.27,0,.52.19.58.46.77,3.66,2.73,5.59,5.5,5.42,2.86-.18,3.57-4.45,3.58-4.49.05-.32.34-.54.66-.49.32.05.53.34.48.66-.03.21-.85,5.23-4.65,5.46-2.77.18-4.92-1.37-6.09-4.28-.72,2.16-2.3,5.23-5.5,5.3-2.93.06-5.14-1.4-6.14-3.91-1.17,2.42-3.81,4.4-5.63,4.63-1.71.21-3.23-.17-4.4-1.1-.85-.68-1.5-1.64-1.93-2.84-1.14,3.05-3.51,4.6-5.6,4.77-.18.01-.34.02-.51.02"/>
      <path class="cls-6" d="M35.17,150.89c-3.94,0-5.17-4.06-5.27-6.21-.03-.64.46-1.18,1.1-1.21.64-.03,1.18.46,1.21,1.1.01.18.24,4.01,2.96,4.01.64,0,1.16.52,1.16,1.16s-.52,1.16-1.16,1.16"/>
      <path class="cls-6" d="M33.11,150.26c-4.12,0-6.91-1.07-8.29-3.2-1.86-2.86-.33-6.4-.27-6.54.26-.58.94-.85,1.53-.59.58.26.85.94.59,1.53-.02.04-1.08,2.56.09,4.35.92,1.4,3.11,2.14,6.34,2.14.64,0,1.16.51,1.16,1.16s-.52,1.15-1.16,1.15"/>
      <path class="cls-6" d="M35.17,150.89c-.64,0-1.16-.52-1.16-1.16s.52-1.16,1.16-1.16c2.72,0,2.95-3.84,2.96-4.01.03-.64.58-1.12,1.21-1.1.64.03,1.13.57,1.1,1.21-.1,2.15-1.33,6.21-5.27,6.21"/>
      <path class="cls-6" d="M37.23,150.26c-.64,0-1.16-.51-1.16-1.15s.52-1.16,1.16-1.16c3.15,0,5.32-.71,6.27-2.05,1.07-1.5.47-3.58.26-4.19s.11-1.27.72-1.47,1.26.11,1.47.72c.38,1.11,1.1,3.95-.56,6.29-1.42,2-4.17,3.01-8.16,3.01"/>
      <path class="cls-6" d="M60.21,150.46c-3.94,0-5.17-4.06-5.27-6.21-.03-.64.46-1.18,1.1-1.21.64-.03,1.18.46,1.21,1.1.01.18.24,4.01,2.96,4.01.64,0,1.16.52,1.16,1.16s-.52,1.16-1.16,1.16"/>
      <path class="cls-6" d="M58.15,149.84c-4.03,0-6.8-1.03-8.2-3.08-1.72-2.5-.77-5.55-.44-6.43.23-.59.9-.9,1.49-.67.6.23.9.9.67,1.5-.16.44-.93,2.69.18,4.29.94,1.36,3.12,2.08,6.3,2.08.64,0,1.16.52,1.16,1.16s-.52,1.16-1.16,1.16"/>
      <path class="cls-6" d="M60.21,150.46c-.64,0-1.16-.52-1.16-1.16s.52-1.16,1.16-1.16c2.74,0,2.95-3.96,2.96-4.01.03-.64.57-1.14,1.21-1.1.64.03,1.13.57,1.1,1.21-.1,2.15-1.33,6.21-5.27,6.21"/>
      <path class="cls-6" d="M63.34,149.91c-.41,0-.81-.03-1.23-.08-.63-.08-1.07-.67-.99-1.31.09-.63.67-1.07,1.31-.99,2.38.33,4.61-.63,5.53-2.38.11-.2,1.02-2.03.15-3.78-.38-.76-.97-1.25-1.39-1.52-.54-.35-.69-1.07-.34-1.6.34-.54,1.06-.69,1.6-.34.96.62,1.72,1.46,2.2,2.43,1.36,2.73.1,5.39-.17,5.89-1.21,2.29-3.8,3.68-6.67,3.68"/>
      <path class="cls-6" d="M50.32,146.08h-.03c-1.73-.03-3.46-.05-5.11-.02h-.02c-.63,0-1.15-.51-1.16-1.14,0-.64.5-1.16,1.14-1.18,1.68-.02,3.43-.02,5.2.02.64.01,1.15.54,1.14,1.18-.02.63-.53,1.13-1.16,1.13"/>
      <path class="cls-9" d="M55.54,123.22c-1.24,2.94-2.13,5-2.71,6.34-.64,1.48-1.19,2.76-.63,3.45.41.51,1.33.59,1.89.38,2.25-.85,1.71-7.63,1.45-10.17"/>
      <path class="cls-9" d="M69.95,124.25c-1.52,2.8-2.6,4.77-3.31,6.04-.78,1.41-1.46,2.62-.97,3.37.36.55,1.27.72,1.85.56,2.33-.62,2.45-7.43,2.43-9.98"/>
      <path class="cls-9" d="M65.39,111.36c-1.14,2.98-1.94,5.08-2.47,6.44-.59,1.5-1.1,2.79-.51,3.46.43.49,1.36.54,1.91.31,2.22-.93,1.43-7.69,1.07-10.21"/>
      <path class="cls-9" d="M41.63,125.59c-1.67,2.72-2.86,4.63-3.63,5.86-.85,1.37-1.59,2.54-1.14,3.31.33.56,1.23.79,1.81.66,2.36-.5,2.84-7.29,2.96-9.84"/>
      <path class="cls-9" d="M54.52,104.95c-1.12,2.98-1.93,5.08-2.45,6.45-.58,1.5-1.08,2.8-.49,3.46.43.49,1.36.54,1.9.31,2.22-.93,1.4-7.69,1.03-10.21"/>
      <path class="cls-6" d="M45.79,81.67c-2.03,0-3.49-.96-4.07-1.41-.25-.2-.29-.56-.1-.81.2-.25.56-.29.81-.1.42.33,1.93,1.37,3.99,1.12,2.18-.26,3.42-1.75,3.75-2.2.1-.14.27-.23.44-.24.18-.01.34.06.46.19,1.2,1.3,2.95,1.82,4.48,1.34,1.41-.45,2.15-1.6,2.4-2.07.08-.16.24-.27.42-.3.18-.03.36.03.49.15.43.4,1.99,1.71,4.3,1.58,2.48-.14,3.95-1.87,4.23-2.21.19-.24.54-.29.8-.11.37.27,2.31,1.56,4.59.85,1.23-.38,2.02-1.16,2.47-1.75.2-.25.56-.3.81-.11s.3.56.11.81c-.56.72-1.54,1.68-3.05,2.15-2.28.71-4.27-.19-5.17-.73-.73.79-2.32,2.12-4.73,2.25-2.15.12-3.76-.8-4.62-1.44-.48.69-1.35,1.6-2.71,2.03-1.75.55-3.73.08-5.2-1.2-.69.76-2.06,1.91-4.13,2.16-.26.03-.52.05-.77.05"/>
      <path class="cls-9" d="M76.36,104.48c-.99,3.03-1.69,5.16-2.16,6.55-.51,1.53-.95,2.84-.33,3.49.45.47,1.38.47,1.92.21,2.17-1.03,1.05-7.75.57-10.25"/>
      <path class="cls-6" d="M52.72,55.35c-.77.12-1.22.56-1.33,1.31-.18,1.15.54,2.88,1.86,3.73,1.12-1.11,1.46-2.94,1.05-4.03-.27-.71-.79-1.05-1.58-1.01ZM53.32,61.68c-.09,0-.18-.02-.25-.06-1.86-.92-3.12-3.21-2.82-5.13.19-1.26,1.04-2.09,2.33-2.28.02,0,.03,0,.05,0,1.3-.08,2.3.56,2.76,1.75.68,1.81-.07,4.33-1.7,5.61-.1.08-.23.12-.36.12"/>
    </g>
  </g>
</svg>