<svg width="14" height="14" viewBox="0 0 14 14" fill="none" xmlns="http://www.w3.org/2000/svg">
<path d="M9.16671 2.53809C8.93337 2.53809 8.73615 2.45753 8.57504 2.29642C8.41393 2.13531 8.33337 1.93809 8.33337 1.70475C8.33337 1.47142 8.41393 1.2742 8.57504 1.11309C8.73615 0.951975 8.93337 0.871419 9.16671 0.871419C9.40004 0.871419 9.59726 0.951975 9.75837 1.11309C9.91948 1.2742 10 1.47142 10 1.70475C10 1.93809 9.91948 2.13531 9.75837 2.29642C9.59726 2.45753 9.40004 2.53809 9.16671 2.53809ZM9.16671 13.5381C8.93337 13.5381 8.73615 13.4575 8.57504 13.2964C8.41393 13.1353 8.33337 12.9381 8.33337 12.7048C8.33337 12.4714 8.41393 12.2742 8.57504 12.1131C8.73615 11.952 8.93337 11.8714 9.16671 11.8714C9.40004 11.8714 9.59726 11.952 9.75837 12.1131C9.91948 12.2742 10 12.4714 10 12.7048C10 12.9381 9.91948 13.1353 9.75837 13.2964C9.59726 13.4575 9.40004 13.5381 9.16671 13.5381ZM11.8334 4.87142C11.6 4.87142 11.4028 4.79086 11.2417 4.62975C11.0806 4.46864 11 4.27142 11 4.03809C11 3.80475 11.0806 3.60753 11.2417 3.44642C11.4028 3.28531 11.6 3.20475 11.8334 3.20475C12.0667 3.20475 12.2639 3.28531 12.425 3.44642C12.5862 3.60753 12.6667 3.80475 12.6667 4.03809C12.6667 4.27142 12.5862 4.46864 12.425 4.62975C12.2639 4.79086 12.0667 4.87142 11.8334 4.87142ZM11.8334 11.2048C11.6 11.2048 11.4028 11.1242 11.2417 10.9631C11.0806 10.802 11 10.6048 11 10.3714C11 10.1381 11.0806 9.94086 11.2417 9.77975C11.4028 9.61864 11.6 9.53808 11.8334 9.53808C12.0667 9.53808 12.2639 9.61864 12.425 9.77975C12.5862 9.94086 12.6667 10.1381 12.6667 10.3714C12.6667 10.6048 12.5862 10.802 12.425 10.9631C12.2639 11.1242 12.0667 11.2048 11.8334 11.2048ZM12.8334 8.03809C12.6 8.03809 12.4028 7.95753 12.2417 7.79642C12.0806 7.63531 12 7.43809 12 7.20475C12 6.97142 12.0806 6.7742 12.2417 6.61309C12.4028 6.45197 12.6 6.37142 12.8334 6.37142C13.0667 6.37142 13.2639 6.45197 13.425 6.61309C13.5862 6.7742 13.6667 6.97142 13.6667 7.20475C13.6667 7.43809 13.5862 7.63531 13.425 7.79642C13.2639 7.95753 13.0667 8.03809 12.8334 8.03809ZM7.00004 13.8714C6.07782 13.8714 5.21115 13.6964 4.40004 13.3464C3.58893 12.9964 2.88337 12.5214 2.28337 11.9214C1.68337 11.3214 1.20837 10.6159 0.858374 9.80475C0.508374 8.99364 0.333374 8.12697 0.333374 7.20475C0.333374 6.28253 0.508374 5.41586 0.858374 4.60475C1.20837 3.79364 1.68337 3.08809 2.28337 2.48809C2.88337 1.88809 3.58893 1.41309 4.40004 1.06309C5.21115 0.713086 6.07782 0.538086 7.00004 0.538086V1.87142C5.51115 1.87142 4.25004 2.38809 3.21671 3.42142C2.18337 4.45475 1.66671 5.71586 1.66671 7.20475C1.66671 8.69364 2.18337 9.95475 3.21671 10.9881C4.25004 12.0214 5.51115 12.5381 7.00004 12.5381V13.8714ZM9.20004 10.3381L6.33337 7.47142V3.87142H7.66671V6.93809L10.1334 9.40475L9.20004 10.3381Z" fill="#6D706F"/>
</svg>
