<svg width="24" height="24" viewBox="0 0 24 24" fill="none" xmlns="http://www.w3.org/2000/svg">
<path d="M10.6153 23.875C10.1891 23.875 9.82093 23.7335 9.51093 23.4506C9.20072 23.1679 9.01197 22.8198 8.94468 22.4062L8.63937 20.0672C8.30458 19.9551 7.96124 19.7981 7.60937 19.5963C7.2577 19.3942 6.94322 19.1778 6.66593 18.9472L4.49999 19.8678C4.10728 20.0409 3.7127 20.0577 3.31624 19.9181C2.91958 19.7787 2.61145 19.5256 2.39187 19.1588L0.983118 16.7163C0.763534 16.3494 0.700305 15.9611 0.79343 15.5516C0.886347 15.1422 1.09947 14.8045 1.43281 14.5384L3.30531 13.1322C3.27656 12.9464 3.25614 12.7597 3.24406 12.5722C3.23197 12.3847 3.22593 12.1979 3.22593 12.0119C3.22593 11.8342 3.23197 11.6535 3.24406 11.47C3.25614 11.2865 3.27656 11.0857 3.30531 10.8678L1.43281 9.46156C1.09947 9.19552 0.888326 8.85573 0.799368 8.44219C0.710409 8.02886 0.775722 7.63865 0.995305 7.27156L2.39187 4.86531C2.61145 4.50635 2.91958 4.25521 3.31624 4.11188C3.7127 3.96833 4.10728 3.98313 4.49999 4.15625L6.65374 5.065C6.9552 4.82625 7.27697 4.60792 7.61906 4.41C7.96114 4.21208 8.29728 4.05302 8.62749 3.93281L8.94468 1.59375C9.01197 1.18021 9.20072 0.832084 9.51093 0.549376C9.82093 0.266459 10.1891 0.125 10.6153 0.125H13.3847C13.8109 0.125 14.1791 0.266459 14.4891 0.549376C14.7993 0.832084 14.988 1.18021 15.0553 1.59375L15.3606 3.94469C15.7356 4.08094 16.0749 4.24 16.3784 4.42188C16.6822 4.60375 16.9887 4.81813 17.2981 5.065L19.5122 4.15625C19.9047 3.98313 20.2993 3.96833 20.6959 4.11188C21.0926 4.25521 21.4006 4.50635 21.62 4.86531L23.0169 7.28375C23.2365 7.65063 23.2997 8.03885 23.2066 8.44844C23.1136 8.85781 22.9005 9.19552 22.5672 9.46156L20.6466 10.9038C20.6913 11.1056 20.7158 11.2944 20.72 11.47C20.7239 11.6454 20.7259 11.8221 20.7259 12C20.7259 12.1698 20.7219 12.3425 20.7137 12.5181C20.7058 12.6935 20.6771 12.8943 20.6275 13.1203L22.5119 14.5384C22.8452 14.8045 23.0604 15.1422 23.1575 15.5516C23.2544 15.9611 23.193 16.3494 22.9734 16.7163L21.5575 19.1466C21.3381 19.5136 21.0281 19.7669 20.6275 19.9062C20.2269 20.0456 19.8302 20.0287 19.4375 19.8556L17.2981 18.935C16.9887 19.1819 16.673 19.4002 16.3509 19.59C16.0288 19.78 15.6987 19.9351 15.3606 20.0553L15.0553 22.4062C14.988 22.8198 14.7993 23.1679 14.4891 23.4506C14.1791 23.7335 13.8109 23.875 13.3847 23.875H10.6153ZM10.75 22H13.2069L13.6562 18.6516C14.2942 18.4849 14.8771 18.2481 15.405 17.9412C15.9331 17.6342 16.4424 17.2395 16.9328 16.7572L20.0384 18.0625L21.2694 15.9375L18.5578 13.8944C18.662 13.5706 18.7328 13.2532 18.7703 12.9422C18.808 12.6314 18.8269 12.3173 18.8269 12C18.8269 11.6746 18.808 11.3605 18.7703 11.0578C18.7328 10.7549 18.662 10.4455 18.5578 10.1297L21.2931 8.0625L20.0625 5.9375L16.9206 7.26188C16.5023 6.81479 16.0011 6.41979 15.4172 6.07688C14.833 5.73396 14.2421 5.49115 13.6444 5.34844L13.25 2H10.7694L10.3556 5.33656C9.71791 5.48719 9.12906 5.71792 8.58906 6.02875C8.04885 6.33979 7.53353 6.74042 7.04312 7.23063L3.93749 5.9375L2.70687 8.0625L5.40624 10.0744C5.30208 10.371 5.22916 10.6796 5.18749 11C5.14583 11.3204 5.12499 11.6577 5.12499 12.0119C5.12499 12.3373 5.14583 12.6563 5.18749 12.9688C5.22916 13.2813 5.29812 13.5898 5.39437 13.8944L2.70687 15.9375L3.93749 18.0625L7.03124 16.75C7.50562 17.2371 8.01281 17.6361 8.55281 17.9472C9.09301 18.258 9.68999 18.4968 10.3437 18.6634L10.75 22ZM12.0144 15.75C13.0544 15.75 13.9394 15.385 14.6694 14.655C15.3994 13.925 15.7644 13.04 15.7644 12C15.7644 10.96 15.3994 10.075 14.6694 9.345C13.9394 8.615 13.0544 8.25 12.0144 8.25C10.9615 8.25 10.0732 8.615 9.34968 9.345C8.62614 10.075 8.26437 10.96 8.26437 12C8.26437 13.04 8.62614 13.925 9.34968 14.655C10.0732 15.385 10.9615 15.75 12.0144 15.75Z" fill="#1F3434"/>
</svg>
